<?xml version="1.0" encoding="UTF-8" standalone="no"?>
<svg
   xmlns:dc="http://purl.org/dc/elements/1.1/"
   xmlns:cc="http://creativecommons.org/ns#"
   xmlns:rdf="http://www.w3.org/1999/02/22-rdf-syntax-ns#"
   xmlns:svg="http://www.w3.org/2000/svg"
   xmlns="http://www.w3.org/2000/svg"
   viewBox="0 0 666.66663 666.66663"
   height="666.66663"
   width="666.66663"
   xml:space="preserve"
   id="svg2"
   version="1.1"><metadata
     id="metadata8"><rdf:RDF><cc:Work
         rdf:about=""><dc:format>image/svg+xml</dc:format><dc:type
           rdf:resource="http://purl.org/dc/dcmitype/StillImage" /></cc:Work></rdf:RDF></metadata><defs
     id="defs6"><clipPath
       id="clipPath20"
       clipPathUnits="userSpaceOnUse"><path
         id="path18"
         d="M 0,500 H 500 V 0 H 0 Z" /></clipPath><clipPath
       id="clipPath32"
       clipPathUnits="userSpaceOnUse"><path
         id="path30"
         d="M 0,500 H 500 V 0 H 0 Z" /></clipPath><clipPath
       id="clipPath80"
       clipPathUnits="userSpaceOnUse"><path
         id="path78"
         d="M 61.834,182.95 H 93.0651 V 121.778 H 61.834 Z" /></clipPath><clipPath
       id="clipPath112"
       clipPathUnits="userSpaceOnUse"><path
         id="path110"
         d="m 61.2443,246.112 h 34.9495 v -48.51 H 61.2443 Z" /></clipPath><clipPath
       id="clipPath128"
       clipPathUnits="userSpaceOnUse"><path
         id="path126"
         d="M 69.79,316.41 H 97.52 V 252.06 H 69.79 Z" /></clipPath><clipPath
       id="clipPath160"
       clipPathUnits="userSpaceOnUse"><path
         id="path158"
         d="M 178.005,351.28 H 191.02 V 308.33 H 178.005 Z" /></clipPath><clipPath
       id="clipPath184"
       clipPathUnits="userSpaceOnUse"><path
         id="path182"
         d="m 196.552,367.984 h 14.54 v -28.195 h -14.54 z" /></clipPath><clipPath
       id="clipPath204"
       clipPathUnits="userSpaceOnUse"><path
         id="path202"
         d="m 209.081,359.45 h 27.847 v -57.943 h -27.847 z" /></clipPath><clipPath
       id="clipPath248"
       clipPathUnits="userSpaceOnUse"><path
         id="path246"
         d="m 399.322,139.258 h 44.72 v -10.564 h -44.72 z" /></clipPath><clipPath
       id="clipPath264"
       clipPathUnits="userSpaceOnUse"><path
         id="path262"
         d="m 237.944,358.129 h 11.315 v -46.514 h -11.315 z" /></clipPath><clipPath
       id="clipPath392"
       clipPathUnits="userSpaceOnUse"><path
         id="path390"
         d="M 389.863,225.744 H 456.55 V 202.76 h -66.687 z" /></clipPath><clipPath
       id="clipPath436"
       clipPathUnits="userSpaceOnUse"><path
         id="path434"
         d="M 97.9732,325.258 H 413.811 V 110.766 H 97.9732 Z" /></clipPath><clipPath
       id="clipPath548"
       clipPathUnits="userSpaceOnUse"><path
         id="path546"
         d="m 255.892,342.405 h 76.798 v -55.59 h -76.798 z" /></clipPath><clipPath
       id="clipPath624"
       clipPathUnits="userSpaceOnUse"><path
         id="path622"
         d="m 195.16,162.35 h 9.53 v -21.69 h -9.53 z" /></clipPath><clipPath
       id="clipPath764"
       clipPathUnits="userSpaceOnUse"><path
         id="path762"
         d="M 0,500 H 500 V 0 H 0 Z" /></clipPath></defs><g
     transform="matrix(1.3333333,0,0,-1.3333333,0,666.66665)"
     id="g10"><path
       id="path12"
       style="fill:#ffffff;fill-opacity:1;fill-rule:nonzero;stroke:none"
       d="M 0,0 H 500 V 500 H 0 Z" /><g
       id="g14"><g
         clip-path="url(#clipPath20)"
         id="g16"><g
           transform="translate(331.6963,65.7422)"
           id="g22"><path
             id="path24"
             style="fill:#ecf3ff;fill-opacity:1;fill-rule:nonzero;stroke:none"
             d="m 0,0 c -8.029,-5.874 0.091,-11.115 10.231,-7.226 5.465,2.097 10.705,4.166 16.297,5.57 1.807,0.453 12.737,2.815 12.738,5.271 C 39.27,10.122 26.952,8.586 19.205,7.501 12.96,6.627 6.62,4.844 0,0 m -177.658,-3.591 c -1.29,-0.259 -2.829,-0.815 -3.016,-2.105 -0.154,-1.066 0.744,-1.976 1.612,-2.623 7.114,-5.307 16.687,-5.647 25.592,-5.771 1.04,-0.014 2.116,-0.022 3.073,0.381 1.905,0.803 2.819,3.312 1.932,5.164 -0.324,0.676 -0.835,1.245 -1.373,1.77 -7.155,6.964 -18.917,4.969 -27.82,3.184 m -133.219,140.767 c -2.18,-1.92 -0.213,-7.539 0.43,-11.248 0.193,-1.113 0.45,-2.262 1.153,-3.151 0.961,-1.214 2.555,-1.713 4.051,-2.146 2.653,-0.77 5.868,-1.422 7.895,0.441 1.503,1.383 1.716,3.637 1.713,5.669 -0.002,1.856 -0.102,3.711 -0.3,5.557 -0.094,0.886 -0.222,1.801 -0.696,2.557 -0.607,0.968 -1.687,1.533 -2.745,1.981 -3.795,1.606 -9.321,2.26 -11.501,0.34 m 440.38,102.506 c 0.203,-1.772 1.296,-3.302 2.354,-4.745 2.04,-2.782 4.112,-5.599 6.805,-7.77 1.139,-0.918 2.464,-1.739 3.932,-1.79 1.338,-0.046 2.618,0.559 3.702,1.336 2.641,1.893 4.424,4.919 4.789,8.128 0.501,4.402 -1.548,8.689 -3.929,12.439 -1.475,2.323 -3.196,4.637 -5.665,5.883 -4.138,2.087 -6.874,0.265 -8.03,-3.4 -1.065,-3.373 -4.389,-6.325 -3.958,-10.081 M 75.21,346.946 c 1.175,-0.405 2.463,-0.031 3.645,0.352 0.759,0.246 1.69,0.789 1.486,1.554 -0.098,0.368 -0.445,0.612 -0.783,0.793 -1.557,0.833 -3.576,1.447 -5.14,0.382 -1.564,-1.066 -0.384,-2.675 0.792,-3.081 m -22.74,5.032 c 3.57,-2.949 8.119,-4.714 12.76,-4.952 1.24,-0.063 2.589,0.016 3.545,0.8 1.183,0.972 1.31,2.957 0.262,4.07 -0.66,0.699 -1.622,1.014 -2.516,1.377 -1.527,0.62 -3.022,1.508 -3.886,2.899 -0.251,0.404 -0.467,0.867 -0.883,1.101 -2.584,1.453 -13.979,-1.417 -9.282,-5.295 m -135.576,24.284 c -4.105,0 -7.434,-2.55 -7.434,-5.695 0,-3.145 3.338,-5.424 7.434,-5.695 13.35,-0.882 13.35,4.515 13.35,7.66 0,5.025 -9.244,3.73 -13.35,3.73 M -219.284,339.52 c 15.62,-1.046 22.155,9.612 29.494,23.31 20.092,37.502 64.838,33.888 79.848,10.795 10.631,-16.356 33.558,-12.992 52.104,-6.59 18.254,6.3 49.354,12.354 74.125,4.824 21.636,-6.576 30.514,-30.301 50.236,-28.842 43.026,3.184 64.716,-39.293 56.924,-57.818 -5.087,-12.092 -7.612,-25.617 -3.476,-38.059 4.554,-13.703 14.959,-24.552 23.367,-36.331 8.408,-11.78 15.181,-26.506 11,-40.326 -3.576,-11.825 -14.246,-20.006 -20.87,-30.463 C 112.899,107.545 133.246,57.777 105.84,30.709 86.222,11.334 54.237,15.807 26.787,12.108 3.896,9.024 -17.646,-0.589 -40.434,-4.355 c -46.147,-7.627 -92.75,9.172 -139.533,9.647 -16.479,0.166 -33.266,-1.669 -49.227,2.395 -21.295,5.421 -39.417,21.806 -46.806,42.318 -10.194,28.306 -0.535,61.062 -12.052,88.865 -9.383,22.65 -32.328,41.076 -30.885,65.517 0.899,15.215 11.294,27.943 18.444,41.44 10.625,20.057 -3.444,99.358 81.209,93.693" /></g></g></g><g
       id="g26"><g
         clip-path="url(#clipPath32)"
         id="g28"><g
           transform="translate(219.4526,86.3193)"
           id="g34"><path
             id="path36"
             style="fill:#c8dbfb;fill-opacity:1;fill-rule:nonzero;stroke:none"
             d="m 0,0 c 0,-1.994 -17.303,-3.611 -38.647,-3.611 -21.345,0 -38.647,1.617 -38.647,3.611 0,1.994 17.302,3.611 38.647,3.611 C -17.303,3.611 0,1.994 0,0" /></g><g
           transform="translate(418.0029,86.3193)"
           id="g38"><path
             id="path40"
             style="fill:#c8dbfb;fill-opacity:1;fill-rule:nonzero;stroke:none"
             d="m 0,0 c 0,-1.994 -17.303,-3.611 -38.647,-3.611 -21.344,0 -38.647,1.617 -38.647,3.611 0,1.994 17.303,3.611 38.647,3.611 C -17.303,3.611 0,1.994 0,0" /></g><g
           transform="translate(461.0117,340.5391)"
           id="g42"><path
             id="path44"
             style="fill:none;stroke:#c8dbfb;stroke-width:1;stroke-linecap:round;stroke-linejoin:round;stroke-miterlimit:4;stroke-dasharray:none;stroke-opacity:1"
             d="M 0,0 C -0.109,0.673 -0.229,1.329 -0.357,1.968" /></g><g
           transform="translate(459.7021,346.3877)"
           id="g46"><path
             id="path48"
             style="fill:none;stroke:#c8dbfb;stroke-width:1;stroke-linecap:round;stroke-linejoin:round;stroke-miterlimit:4;stroke-dasharray:3.993, 3.993;stroke-dashoffset:0;stroke-opacity:1"
             d="m 0,0 c -6.894,23.479 -28.878,21.214 -48.747,21.173 -21.388,-0.045 -352.509,-0.728 -352.509,-0.728 -33.275,-0.069 -30.055,-48.107 -4,-48.053 14.98,0.031 20.676,-28.098 -5.224,-28.151 -15.539,-0.033 -16.036,-19.729 -5.589,-23.676" /></g><g
           transform="translate(45.5522,266.4336)"
           id="g50"><path
             id="path52"
             style="fill:none;stroke:#c8dbfb;stroke-width:1;stroke-linecap:round;stroke-linejoin:round;stroke-miterlimit:4;stroke-dasharray:none;stroke-opacity:1"
             d="M 0,0 C 0.635,-0.109 1.301,-0.166 1.998,-0.164" /></g><g
           transform="translate(51.6348,267.1782)"
           id="g54"><path
             id="path56"
             style="fill:#5193f4;fill-opacity:1;fill-rule:nonzero;stroke:none"
             d="m 0,0 c 0.444,-2.607 -1.309,-5.081 -3.916,-5.526 -2.607,-0.445 -5.081,1.309 -5.525,3.916 -0.445,2.607 1.308,5.081 3.915,5.526 C -2.919,4.36 -0.445,2.607 0,0" /></g><g
           transform="translate(465.7256,338.3862)"
           id="g58"><path
             id="path60"
             style="fill:#5193f4;fill-opacity:1;fill-rule:nonzero;stroke:none"
             d="m 0,0 c -0.475,-2.602 -2.968,-4.327 -5.57,-3.853 -2.602,0.474 -4.327,2.968 -3.853,5.57 0.474,2.602 2.968,4.327 5.569,3.853 C -1.251,5.096 0.474,2.602 0,0" /></g><g
           transform="translate(100.4502,302.1602)"
           id="g62"><path
             id="path64"
             style="fill:#5193f4;fill-opacity:1;fill-rule:nonzero;stroke:none"
             d="m 0,0 c -0.69,-3.89 -1.7,-7.69 -2.93,-11.44 -2.65,-8.09 -6.31,-15.88 -10.01,-23.57 -1.93,-4.02 -9.76,-13.32 -13.96,-15.09 0.49,10.49 0.53,22.74 -0.69,33.33 -1.17,10.2 2.5,17.93 -1.5,27.39 -0.51,1.21 -1.04,2.42 -1.57,3.63 -1.99,4.5 -3.96,9.02 -4.58,13.87 -0.8,6.15 1.11,13.16 6.43,16.36 3.83,2.3 8.82,2.18 12.91,0.37 4.09,-1.81 7.37,-5.12 9.86,-8.83 C 0.93,25.66 2.19,12.28 0,0" /></g><g
           transform="translate(81.8496,336.1343)"
           id="g66"><path
             id="path68"
             style="fill:none;stroke:#0b43a4;stroke-width:1;stroke-linecap:round;stroke-linejoin:round;stroke-miterlimit:10;stroke-dasharray:none;stroke-opacity:1"
             d="M 0,0 C 7.831,-11.057 8.51,-23.939 9.188,-37.471 9.867,-51.003 6.615,-64.709 -0.07,-76.494" /></g><g
           transform="translate(81.5229,132.1543)"
           id="g70"><path
             id="path72"
             style="fill:#00ad9f;fill-opacity:1;fill-rule:nonzero;stroke:none"
             d="m 0,0 c -5.488,4.851 -11.041,9.774 -15.096,15.873 -3.531,5.312 -5.812,11.344 -8.893,16.929 -1.994,3.614 -4.348,7.095 -5.503,11.058 -1.155,3.964 -0.878,8.657 1.938,11.675 2.937,3.149 7.989,3.631 11.977,2.009 3.988,-1.623 7.036,-4.976 9.365,-8.597 3.091,-4.81 5.157,-10.276 6.018,-15.928 C 0.586,27.896 0.387,22.662 1.183,17.543 1.924,12.772 3.527,8.191 5.548,3.821 7.381,-0.143 12.025,-7.209 13.21,-11.272 9.928,-12.916 2.339,-2.067 0,0" /></g><g
           id="g74"><g
             id="g76" /><g
             id="g88"><g
               id="g86"
               clip-path="url(#clipPath80)"><g
                 id="g84"
                 transform="translate(62.334,182.4502)"><path
                   id="path82"
                   style="fill:none;stroke:#00ad9f;stroke-width:1;stroke-linecap:round;stroke-linejoin:round;stroke-miterlimit:10;stroke-dasharray:none;stroke-opacity:1"
                   d="m 0,0 c 5.218,-2.284 7.293,-8.508 8.382,-14.099 1.239,-6.363 0.964,-13.254 3.882,-19.044 5.496,-10.906 12.65,-23.32 17.967,-27.029" /></g></g></g></g><g
           transform="translate(54.5132,147.0752)"
           id="g90"><path
             id="path92"
             style="fill:#0056ec;fill-opacity:1;fill-rule:nonzero;stroke:none"
             d="m 0,0 c -4.554,1.798 -10.636,2.537 -13.556,-1.394 -2.445,-3.291 -1.179,-7.956 0.51,-11.691 1.425,-3.153 3.236,-6.36 6.243,-8.074 2.054,-1.172 4.461,-1.524 6.808,-1.803 6.548,-0.779 13.144,-1.16 19.738,-1.142 7.643,0.022 16.902,-3.099 23.225,-7.866 C 34.854,-16.885 15.328,-6.053 0,0" /></g><g
           transform="translate(46.5229,137.2686)"
           id="g94"><path
             id="path96"
             style="fill:none;stroke:#0b43a4;stroke-width:1;stroke-linecap:round;stroke-linejoin:round;stroke-miterlimit:10;stroke-dasharray:none;stroke-opacity:1"
             d="m 0,0 c 5.797,-0.246 11.647,-0.654 17.211,-2.3 5.69,-1.682 27.578,-11.726 30.999,-16.002" /></g><g
           transform="translate(104.1904,178.0293)"
           id="g98"><path
             id="path100"
             style="fill:#52d2bc;fill-opacity:1;fill-rule:nonzero;stroke:none"
             d="m 0,0 c -5.926,9.281 -16.067,15.76 -26.985,17.226 -8.06,1.083 -16.354,-0.425 -24.308,1.253 -8.358,1.751 -15.898,7.136 -20.263,14.485 -4.364,7.349 -5.501,16.535 -3.048,24.723 1.87,6.222 6.139,12.117 12.319,14.113 3.367,1.083 7.052,0.934 10.493,0.106 3.175,-0.764 6.127,-2.092 8.846,-3.823 6.223,-3.939 11.246,-10.004 15.027,-16.439 3.43,-5.852 11.894,-14.963 17.65,-20.889 3.377,-3.462 5.83,-5.83 5.83,-5.83 C -0.488,20.019 -2.336,5.852 0,0" /></g><g
           transform="translate(40.1094,231.8389)"
           id="g102"><path
             id="path104"
             style="fill:none;stroke:#00ad9f;stroke-width:1;stroke-linecap:round;stroke-linejoin:round;stroke-miterlimit:10;stroke-dasharray:none;stroke-opacity:1"
             d="M 0,0 C 19.367,-8.744 40.494,-20.203 54.229,-36.417" /></g><g
           id="g106"><g
             id="g108" /><g
             id="g120"><g
               style="opacity:0.19999701"
               id="g118"
               clip-path="url(#clipPath112)"><g
                 id="g116"
                 transform="translate(96.1938,197.6016)"><path
                   id="path114"
                   style="fill:#5275a0;fill-opacity:1;fill-rule:nonzero;stroke:none"
                   d="m 0,0 c 0,0 -28.864,23.396 -34.95,48.511 6.223,-3.94 11.247,-10.004 15.027,-16.44 C -16.493,26.22 -8.029,17.108 -2.272,11.183 -1.593,8.039 -0.839,4.354 0,0" /></g></g></g></g><g
           id="g122"><g
             id="g124" /><g
             id="g136"><g
               style="opacity:0.19999701"
               id="g134"
               clip-path="url(#clipPath128)"><g
                 id="g132"
                 transform="translate(97.52,290.7202)"><path
                   id="path130"
                   style="fill:#5275a0;fill-opacity:1;fill-rule:nonzero;stroke:none"
                   d="m 0,0 c -2.65,-8.09 -6.31,-15.88 -10.01,-23.57 -1.93,-4.02 -9.76,-13.32 -13.96,-15.09 0.49,10.49 0.53,22.74 -0.69,33.33 -1.17,10.2 2.5,17.93 -1.5,27.39 -0.51,1.21 -1.04,2.42 -1.57,3.63 0.37,-0.12 0.73,-0.25 1.08,-0.4 6.58,-2.82 9.62,-9.78 10.18,-16.54 0.47,-5.58 -0.54,-11.17 -1.29,-16.72 -0.35,-2.56 -0.63,-5.18 -0.08,-7.69 0.01,-0.03 0.02,-0.05 0.02,-0.08 0.69,-2.99 5.06,-2.82 5.62,0.21 l 1.75,9.29 c 0.52,2.78 1.09,5.69 3.37,7.63 0.9,0.77 2.06,1.25 3.24,1.21 C -1.96,2.53 -0.78,1.43 0,0" /></g></g></g></g><g
           transform="translate(96.1978,203.4678)"
           id="g138"><path
             id="path140"
             style="fill:#7ee8d4;fill-opacity:1;fill-rule:nonzero;stroke:none"
             d="m 0,0 c -4.559,23.809 -6.957,27.477 -4.951,33.445 2.555,7.607 1.119,15.254 3.53,22.907 2.411,7.653 4.052,15.883 2.107,23.668 -0.615,2.461 -1.862,5.145 -4.818,5.246 -1.186,0.041 -2.342,-0.437 -3.244,-1.206 -2.279,-1.942 -2.854,-4.852 -3.375,-7.631 l -1.741,-9.291 c -0.566,-3.022 -4.932,-3.2 -5.623,-0.203 -0.006,0.024 -0.011,0.049 -0.017,0.075 -0.559,2.515 -0.271,5.133 0.073,7.686 0.749,5.555 1.758,11.143 1.296,16.729 -0.559,6.76 -3.601,13.721 -10.185,16.534 -2.335,0.997 -4.969,1.224 -7.427,0.593 -6.872,-1.764 -8.65,-8.48 -7.643,-14.214 0.71,-4.035 2.603,-7.746 4.315,-11.468 4.181,-9.092 1.114,-17.43 1.693,-27.42 C -34.413,27.879 0,0 0,0" /></g><g
           transform="translate(65.5376,304.812)"
           id="g142"><path
             id="path144"
             style="fill:none;stroke:#00ad9f;stroke-width:1;stroke-linecap:round;stroke-linejoin:round;stroke-miterlimit:10;stroke-dasharray:none;stroke-opacity:1"
             d="m 0,0 c 3.391,-16.94 6.819,-34.003 13.4,-49.977 1.931,-4.685 2.874,-10.849 14.043,-23.593" /></g><g
           transform="translate(197.7803,300.4702)"
           id="g146"><path
             id="path148"
             style="fill:#5193f4;fill-opacity:1;fill-rule:nonzero;stroke:none"
             d="m 0,0 c -3.51,4.01 -6.75,8.09 -10.16,12.02 -2.21,2.55 -4.49,5.04 -6.97,7.4 -1.23,1.18 -2.5,2.32 -3.84,3.43 -7.92,6.54 -16.76,11.97 -26.21,16.01 -5.7,2.44 -11.72,4.45 -16.56,8.34 -4.84,3.88 -8.321,10.26 -6.71,16.25 1.17,4.32 4.84,7.68 9.05,9.22 4.2,1.53 8.86,1.41 13.23,0.47 12.2,-2.63 22.39,-11.4 29.32,-21.77 0.12,-0.18 0.25,-0.37 0.37,-0.56 C -13.4,43.06 -9.85,34.44 -6.76,25.66 -5.771,22.84 -4.83,20 -3.9,17.17 -2.5,12.94 1.8,4.19 0,0" /></g><g
           transform="translate(141.9731,363.4272)"
           id="g150"><path
             id="path152"
             style="fill:none;stroke:#0b43a4;stroke-width:1;stroke-linecap:round;stroke-linejoin:round;stroke-miterlimit:10;stroke-dasharray:none;stroke-opacity:1"
             d="m 0,0 c 13.309,-2.538 22.73,-11.351 32.602,-20.632 9.871,-9.281 17.03,-21.412 20.383,-34.539" /></g><g
           id="g154"><g
             id="g156" /><g
             id="g168"><g
               style="opacity:0.19999701"
               id="g166"
               clip-path="url(#clipPath160)"><g
                 id="g164"
                 transform="translate(187.6201,312.4902)"><path
                   id="path162"
                   style="fill:#5275a0;fill-opacity:1;fill-rule:nonzero;stroke:none"
                   d="M 0,0 C -0.11,-1.38 -0.07,-2.76 0.19,-4.16 -3.14,-3.4 -5.45,1.77 -6.97,7.4 -8.46,12.87 -9.2,18.79 -9.43,21.52 -9.88,27.28 -9.51,33.12 -8.32,38.79 -3.24,31.04 0.31,22.42 3.4,13.64 2.34,10.49 1.43,7.3 0.68,4.08 0.36,2.71 0.11,1.36 0,0" /></g></g></g></g><g
           transform="translate(210.7168,360.54)"
           id="g170"><path
             id="path172"
             style="fill:#52d2bc;fill-opacity:1;fill-rule:nonzero;stroke:none"
             d="m 0,0 c -1.125,-4.991 -4.142,-9.303 -6.796,-13.678 -1.402,-2.305 -2.708,-4.673 -3.93,-7.073 -3.908,-7.678 -6.892,-15.834 -8.857,-24.224 -0.647,-2.75 -1.009,-5.448 -0.488,-8.241 -6.563,1.498 -9.176,20.146 -9.622,25.69 -0.786,9.982 0.914,20.209 5.024,29.352 1.794,4.015 4.109,7.955 7.677,10.525 3.558,2.569 8.602,3.472 12.372,1.232 2.273,-1.349 3.728,-3.59 4.439,-6.139 C 0.51,5.065 0.542,2.411 0,0" /></g><g
           transform="translate(188.1299,312.8286)"
           id="g174"><path
             id="path176"
             style="fill:none;stroke:#00ad9f;stroke-width:1;stroke-linecap:round;stroke-linejoin:round;stroke-miterlimit:10;stroke-dasharray:none;stroke-opacity:1"
             d="m 0,0 c -4.08,10.247 -1.601,31.936 4.944,45.568 1.973,4.107 4.779,7.957 8.715,10.253" /></g><g
           id="g178"><g
             id="g180" /><g
             id="g192"><g
               style="opacity:0.19999701"
               id="g190"
               clip-path="url(#clipPath184)"><g
                 id="g188"
                 transform="translate(210.7168,360.54)"><path
                   id="path186"
                   style="fill:#5275a0;fill-opacity:1;fill-rule:nonzero;stroke:none"
                   d="m 0,0 c -1.125,-4.991 -4.142,-9.303 -6.796,-13.678 -1.402,-2.305 -2.708,-4.673 -3.93,-7.073 -1.795,3.016 -3.016,6.351 -3.356,9.834 -0.552,5.809 1.667,12.032 6.394,15.452 2.209,1.592 4.799,2.495 7.507,2.909 C 0.51,5.065 0.542,2.411 0,0" /></g></g></g></g><g
           transform="translate(248.5654,317.1372)"
           id="g194"><path
             id="path196"
             style="fill:#00ad9f;fill-opacity:1;fill-rule:nonzero;stroke:none"
             d="m 0,0 c -0.308,-1.912 -0.881,-3.749 -1.699,-5.522 -2.91,-6.298 -9.016,-11.703 -18.171,-16.1 0,0 -0.509,9.961 -0.615,12.627 -0.447,11.416 -12.84,17.735 -20.677,26.061 -3.993,4.247 -7.02,9.611 -7.583,15.419 -0.552,5.809 1.668,12.033 6.393,15.453 3.962,2.856 9.144,3.482 14.019,3.111 7.858,-0.627 15.791,-3.919 20.676,-10.057 0.213,-0.234 0.393,-0.478 0.574,-0.722 2.995,-4.089 4.534,-9.069 5.66,-14.029 C 0.531,17.65 1.413,8.708 0,0" /></g><g
           id="g198"><g
             id="g200" /><g
             id="g212"><g
               id="g210"
               clip-path="url(#clipPath204)"><g
                 id="g208"
                 transform="translate(209.5811,358.9497)"><path
                   id="path206"
                   style="fill:none;stroke:#00ad9f;stroke-width:1;stroke-linecap:round;stroke-linejoin:round;stroke-miterlimit:10;stroke-dasharray:none;stroke-opacity:1"
                   d="m 0,0 c 8.577,-4.436 17.169,-9.799 22.165,-18.063 6.968,-11.528 5.449,-26.528 0.075,-38.88" /></g></g></g></g><g
           transform="translate(392.0635,243.4854)"
           id="g214"><path
             id="path216"
             style="fill:#52d2bc;fill-opacity:1;fill-rule:nonzero;stroke:none"
             d="m 0,0 c 5.467,9 2.675,20.577 4.577,30.934 1.464,7.962 5.894,15.343 12.232,20.379 3.978,3.161 9.566,5.418 14.06,3.049 0.974,-0.513 2.132,-1.235 3.069,-0.658 0.56,0.344 0.785,1.038 0.916,1.682 1.14,5.593 -1.549,11.703 0.648,16.972 1.184,2.837 3.631,4.956 6.223,6.608 4.998,3.186 10.846,5.021 16.768,5.261 1.572,0.064 3.208,0.003 4.615,-0.702 2.541,-1.274 3.704,-4.438 3.363,-7.261 C 66.13,73.442 64.573,70.917 62.846,68.658 57.104,61.151 48.691,54.673 47.583,45.287 c -0.141,-1.184 -0.141,-2.44 0.403,-3.501 0.527,-1.026 1.506,-1.758 2.057,-2.77 1.769,-3.25 -1.647,-6.935 -4.984,-8.533 C 42.012,29.024 38.705,28.109 35.342,27.794 33.026,27.577 30.409,27.522 28.834,25.811 25.927,22.653 29.267,17.604 28.657,13.356 28.276,10.704 26.353,8.563 24.422,6.706 20.836,3.258 16.911,0.162 12.723,-2.521 9.326,-4.696 5.732,-6.619 2.722,-9.303 c -3.011,-2.683 -5.444,-6.314 -5.641,-10.343" /></g><g
           transform="translate(399.2676,252.2393)"
           id="g218"><path
             id="path220"
             style="fill:none;stroke:#00ad9f;stroke-width:1;stroke-linecap:round;stroke-linejoin:round;stroke-miterlimit:10;stroke-dasharray:none;stroke-opacity:1"
             d="m 0,0 c 0.894,4.362 2.923,8.396 4.932,12.37 3.139,6.21 6.34,12.511 11.083,17.604 3.6,3.867 7.991,6.926 11.652,10.735 2.61,2.716 4.835,5.802 6.582,9.139 0.947,1.809 1.767,3.71 3.045,5.302 1.518,1.891 3.593,3.238 5.398,4.856 2.44,2.184 4.405,4.895 5.723,7.892" /></g><g
           transform="translate(470.5703,237.2402)"
           id="g222"><path
             id="path224"
             style="fill:#5193f4;fill-opacity:1;fill-rule:nonzero;stroke:none"
             d="m 0,0 c -1.23,-4.74 -3.061,-9.431 -6.2,-13.19 -2.17,-2.59 -4.87,-4.64 -7.821,-6.31 -1.519,-0.87 -3.12,-1.63 -4.729,-2.311 -6.261,-2.629 -12.99,-4.12 -19.771,-4.379 -9.879,-0.371 -20.04,1.81 -29.519,-1.01 -4.351,-1.29 -8.36,-3.64 -11.65,-6.75 -2.06,-1.93 -3.831,-4.16 -5.23,-6.611 l 1.29,8.201 c 2.39,8.82 4.829,17.799 9.71,25.53 3.149,5.01 7.239,9.37 11.59,13.38 6.95,6.42 14.66,12.07 23.17,16.2 6.88,3.34 14.519,5.69 22.12,4.76 C -9.45,26.59 -1.99,21.79 0.38,14.52 1.899,9.85 1.239,4.75 0,0" /></g><g
           transform="translate(393.4004,211.123)"
           id="g226"><path
             id="path228"
             style="fill:none;stroke:#0b43a4;stroke-width:1;stroke-linecap:round;stroke-linejoin:round;stroke-miterlimit:10;stroke-dasharray:none;stroke-opacity:1"
             d="m 0,0 c 7.262,10.742 18.135,18.996 30.434,23.102 7.664,2.558 15.767,3.531 23.53,5.771 7.763,2.239 15.507,6.043 20.057,12.718" /></g><g
           transform="translate(398.1836,132.3506)"
           id="g230"><path
             id="path232"
             style="fill:#52d2bc;fill-opacity:1;fill-rule:nonzero;stroke:none"
             d="m 0,0 c 0.433,11.028 6.134,21.211 13.058,29.807 5.774,7.168 12.743,13.729 21.349,16.996 2.697,1.023 5.656,1.71 8.457,1.022 2.8,-0.688 5.339,-3.085 5.39,-5.969 0.043,-2.431 -1.59,-4.556 -3.31,-6.277 C 39.286,29.912 31.973,26.276 25.119,22.134 13.339,15.015 2.143,5.511 -2.532,-7.437" /></g><g
           transform="translate(402.543,142.002)"
           id="g234"><path
             id="path236"
             style="fill:none;stroke:#00ad9f;stroke-width:1;stroke-linecap:round;stroke-linejoin:round;stroke-miterlimit:10;stroke-dasharray:none;stroke-opacity:1"
             d="M 0,0 C 7.199,16.059 25.836,30.417 38.128,32.211" /></g><g
           transform="translate(393.6836,123.582)"
           id="g238"><path
             id="path240"
             style="fill:#00ad9f;fill-opacity:1;fill-rule:nonzero;stroke:none"
             d="m 0,0 c -0.099,1.849 5.929,6.681 7.287,7.913 7.526,6.825 16.473,11.846 25.921,14.812 3.824,1.201 7.886,2.073 11.712,1.149 3.825,-0.923 7.335,-4.057 7.711,-8.184 C 52.995,11.688 50.31,7.773 46.884,5.837 43.458,3.9 39.451,3.607 35.631,3.83 29.727,4.174 23.931,5.641 18.006,5.596 12.08,5.55 3.762,4.951 0,0" /></g><g
           id="g242"><g
             id="g244" /><g
             id="g256"><g
               id="g254"
               clip-path="url(#clipPath248)"><g
                 id="g252"
                 transform="translate(399.8223,129.1943)"><path
                   id="path250"
                   style="fill:none;stroke:#00ad9f;stroke-width:1;stroke-linecap:round;stroke-linejoin:round;stroke-miterlimit:10;stroke-dasharray:none;stroke-opacity:1"
                   d="M 0,0 C 12.112,6.562 30.425,10.833 43.72,9.224" /></g></g></g></g><g
           id="g258"><g
             id="g260" /><g
             id="g272"><g
               style="opacity:0.19999701"
               id="g270"
               clip-path="url(#clipPath264)"><g
                 id="g268"
                 transform="translate(248.5654,317.1372)"><path
                   id="path266"
                   style="fill:#5275a0;fill-opacity:1;fill-rule:nonzero;stroke:none"
                   d="m 0,0 c -0.308,-1.912 -0.881,-3.749 -1.699,-5.522 -4.248,9.005 -7.986,20.772 -8.889,35.214 -0.244,3.909 0.85,7.933 2.931,11.3 0.213,-0.234 0.393,-0.478 0.574,-0.722 2.995,-4.089 4.534,-9.069 5.66,-14.029 C 0.531,17.65 1.413,8.708 0,0" /></g></g></g></g><g
           transform="translate(290.457,317.6416)"
           id="g274"><path
             id="path276"
             style="fill:#7ee8d4;fill-opacity:1;fill-rule:nonzero;stroke:none"
             d="m 0,0 c 9.044,3.212 18.436,5.774 26.658,10.726 2.487,1.497 4.883,3.237 6.648,5.542 1.764,2.304 2.848,5.242 2.455,8.118 -0.4,2.923 -2.271,5.723 -1.641,8.606 0.415,1.901 1.841,3.385 2.931,4.996 2.593,3.832 3.364,8.842 2.046,13.276 -1.418,4.765 -4.989,8.577 -7.021,13.113 -1.66,3.706 -2.254,7.882 -1.692,11.903 C 22.798,76.178 15.873,72.034 8.413,70.651 2.707,69.593 -3.229,70.168 -8.885,68.869 -19.199,66.498 -27.63,57.421 -29.234,46.96 c -4.785,0.822 -9.932,-0.903 -13.256,-4.441 -3.535,-3.763 -5.524,-9.107 -5.203,-14.26 2.33,-37.428 23.758,-56.954 23.758,-56.954 0,0 20.487,27.47 23.935,28.695" /></g><g
           transform="translate(270.2295,317.9038)"
           id="g278"><path
             id="path280"
             style="fill:none;stroke:#00ad9f;stroke-width:1;stroke-linecap:round;stroke-linejoin:round;stroke-miterlimit:10;stroke-dasharray:none;stroke-opacity:1"
             d="m 0,0 c -0.94,9.233 2.285,18.359 5.992,26.869 3.612,8.292 7.768,16.421 13.347,23.541 5.579,7.119 12.669,13.224 21.038,16.655" /></g><g
           transform="translate(278.2773,379.3057)"
           id="g282"><path
             id="path284"
             style="fill:none;stroke:#00ad9f;stroke-width:1;stroke-linecap:round;stroke-linejoin:round;stroke-miterlimit:10;stroke-dasharray:none;stroke-opacity:1"
             d="M 0,0 C -0.95,-8.231 -0.285,-18.148 1.858,-26.152" /></g><g
           transform="translate(281.6758,356.1011)"
           id="g286"><path
             id="path288"
             style="fill:none;stroke:#00ad9f;stroke-width:1;stroke-linecap:round;stroke-linejoin:round;stroke-miterlimit:10;stroke-dasharray:none;stroke-opacity:1"
             d="M 0,0 C 9.401,6.03 23.863,9.692 35.014,9.053" /></g><g
           transform="translate(258.6875,354.562)"
           id="g290"><path
             id="path292"
             style="fill:none;stroke:#00ad9f;stroke-width:1;stroke-linecap:round;stroke-linejoin:round;stroke-miterlimit:10;stroke-dasharray:none;stroke-opacity:1"
             d="M 0,0 C 11.317,-4.772 11.783,-21.414 12.086,-26.142" /></g><g
           transform="translate(273.8584,339.0015)"
           id="g294"><path
             id="path296"
             style="fill:none;stroke:#00ad9f;stroke-width:1;stroke-linecap:round;stroke-linejoin:round;stroke-miterlimit:10;stroke-dasharray:none;stroke-opacity:1"
             d="M 0,0 C 8.66,6.212 21.173,8.079 30.383,5.763" /></g><g
           transform="translate(297.4834,383.5791)"
           id="g298"><path
             id="path300"
             style="fill:none;stroke:#00ad9f;stroke-width:1;stroke-linecap:round;stroke-linejoin:round;stroke-miterlimit:10;stroke-dasharray:none;stroke-opacity:1"
             d="M 0,0 C -2.604,-3.212 -3.252,-7.033 -2.991,-9.676" /></g><g
           transform="translate(296.958,376.2485)"
           id="g302"><path
             id="path304"
             style="fill:none;stroke:#00ad9f;stroke-width:1;stroke-linecap:round;stroke-linejoin:round;stroke-miterlimit:10;stroke-dasharray:none;stroke-opacity:1"
             d="M 0,0 C 3.992,2.045 9.329,2.514 15.038,1.082" /></g><g
           transform="translate(74.2974,358.1479)"
           id="g306"><path
             id="path308"
             style="fill:#4a49ca;fill-opacity:1;fill-rule:nonzero;stroke:none"
             d="m 0,0 c 1.064,0.056 8.318,5.43 11.112,7.24 0.786,0.51 1.585,1.044 2.134,1.803 0.549,0.759 0.805,1.8 0.405,2.646 -0.496,1.052 -1.318,2.102 -3.395,2.098 C 6.642,13.779 5.388,12.591 3.63,10.774 -2.183,4.764 0,0 0,0" /></g><g
           transform="translate(106.8213,336.4756)"
           id="g310"><path
             id="path312"
             style="fill:#4a49ca;fill-opacity:1;fill-rule:nonzero;stroke:none"
             d="m 0,0 c 3.158,-1.419 6.533,-2.834 9.968,-2.395 1.332,0.171 2.786,0.776 3.23,2.044 0.379,1.083 -0.144,2.325 -1.003,3.086 C 11.336,3.496 10.203,3.865 9.088,4.137 4.883,5.163 -1.019,4.595 -5.183,3.413 -5.183,3.413 -1.885,0.847 0,0" /></g><g
           transform="translate(127.624,383.1294)"
           id="g314"><path
             id="path316"
             style="fill:#4a49ca;fill-opacity:1;fill-rule:nonzero;stroke:none"
             d="M 0,0 C -1.409,0.89 -2.965,2.08 -2.964,3.746 -2.962,5.417 -1.22,6.69 0.451,6.699 2.122,6.708 3.673,5.796 4.928,4.694 10.243,0.028 9.581,-5.292 9.581,-5.292 9.581,-5.292 1.569,-0.991 0,0" /></g><g
           transform="translate(131.8149,397.3618)"
           id="g318"><path
             id="path320"
             style="fill:#4a49ca;fill-opacity:1;fill-rule:nonzero;stroke:none"
             d="m 0,0 c -1.236,0.531 -2.513,1.172 -3.238,2.306 -0.353,0.551 -0.553,1.25 -0.335,1.868 0.364,1.034 1.011,1.962 3.617,1.49 8.25,-1.497 10.047,-7.147 10.047,-7.147 0,0 -7.901,0.542 -10.091,1.483" /></g><g
           transform="translate(155.9849,384.8647)"
           id="g322"><path
             id="path324"
             style="fill:#4a49ca;fill-opacity:1;fill-rule:nonzero;stroke:none"
             d="m 0,0 c 3.31,0.285 6.727,1.934 8.813,4.519 0.787,0.975 1.508,2.052 1.77,3.278 0.263,1.226 -0.017,2.632 -0.966,3.451 C 8.458,12.246 6.621,12.085 5.344,11.243 4.068,10.4 3.249,9.027 2.584,7.65 1.7,5.814 0,0 0,0" /></g><g
           transform="translate(96.8975,264.2021)"
           id="g326"><path
             id="path328"
             style="fill:none;stroke:#0b43a4;stroke-width:1;stroke-linecap:round;stroke-linejoin:round;stroke-miterlimit:10;stroke-dasharray:none;stroke-opacity:1"
             d="m 0,0 c -8.013,7.063 -16.025,14.126 -24.038,21.19 -4.27,3.765 -8.63,7.639 -11.335,12.648 -5.814,10.768 -2.462,24.759 5.39,34.145 7.852,9.387 19.353,14.929 30.906,18.962 11.554,4.034 23.58,6.864 34.594,12.198 6.907,3.346 13.851,8.33 15.746,15.767 1.139,4.473 0.181,9.435 -2.541,13.163 -2.723,3.728 -7.159,6.15 -11.767,6.425" /></g><g
           transform="translate(161.583,392.5459)"
           id="g330"><path
             id="path332"
             style="fill:none;stroke:#0b43a4;stroke-width:1;stroke-linecap:round;stroke-linejoin:round;stroke-miterlimit:10;stroke-dasharray:none;stroke-opacity:1"
             d="M 0,0 C -2.189,-6.723 -10.717,-10.813 -14.609,-16.637" /></g><g
           transform="translate(130.9644,384.813)"
           id="g334"><path
             id="path336"
             style="fill:none;stroke:#0b43a4;stroke-width:1;stroke-linecap:round;stroke-linejoin:round;stroke-miterlimit:10;stroke-dasharray:none;stroke-opacity:1"
             d="M 0,0 C 1.679,-1.773 3.69,-3.239 5.155,-5.192 8.251,-9.321 8.51,-16.028 3.93,-20.19" /></g><g
           transform="translate(87.8164,347.1763)"
           id="g338"><path
             id="path340"
             style="fill:none;stroke:#0b43a4;stroke-width:1;stroke-linecap:round;stroke-linejoin:round;stroke-miterlimit:10;stroke-dasharray:none;stroke-opacity:1"
             d="M 0,0 C 7.069,-5.447 16.362,-9.078 25.279,-9.424" /></g><g
           transform="translate(71.6328,337.2539)"
           id="g342"><path
             id="path344"
             style="fill:none;stroke:#0b43a4;stroke-width:1;stroke-linecap:round;stroke-linejoin:round;stroke-miterlimit:10;stroke-dasharray:none;stroke-opacity:1"
             d="M 0,0 C -3.255,9.598 0.292,21.096 8.388,27.193" /></g><g
           transform="translate(330.0469,377.8086)"
           id="g346"><path
             id="path348"
             style="fill:#4a49ca;fill-opacity:1;fill-rule:nonzero;stroke:none"
             d="M 0,0 C -0.384,1.188 -0.364,2.647 0.514,3.535 1.21,4.239 2.378,4.554 3.284,4.156 10.313,1.064 9.553,-9.902 9.553,-9.902 9.553,-9.902 2.886,-8.939 0,0" /></g><g
           transform="translate(329.876,357.2671)"
           id="g350"><path
             id="path352"
             style="fill:#4a49ca;fill-opacity:1;fill-rule:nonzero;stroke:none"
             d="M 0,0 C -4.547,-8.218 11.615,-7.591 17.443,-2.751 17.443,-2.751 3.915,7.074 0,0" /></g><g
           transform="translate(350.3105,377.186)"
           id="g354"><path
             id="path356"
             style="fill:#4a49ca;fill-opacity:1;fill-rule:nonzero;stroke:none"
             d="M 0,0 C -1.097,1.504 -1.486,3.744 -0.292,5.172 0.598,6.235 2.147,6.563 3.509,6.301 4.87,6.039 6.91,4.779 7.779,3.698 c 5.319,-6.616 2.819,-13.092 2.819,-13.092 0,0 -8.8,6.931 -10.598,9.394" /></g><g
           transform="translate(414.4951,356.8369)"
           id="g358"><path
             id="path360"
             style="fill:#4a49ca;fill-opacity:1;fill-rule:nonzero;stroke:none"
             d="M 0,0 C -0.393,1.28 -0.301,2.842 0.694,3.738 1.322,4.304 2.216,4.509 3.059,4.445 3.902,4.381 4.707,4.075 5.477,3.723 7.125,2.97 8.407,1.654 9.198,0.024 11.197,-4.093 9.84,-9.19 9.84,-9.19 c 0,0 -8.861,6 -9.84,9.19" /></g><g
           transform="translate(394.3047,341.7559)"
           id="g362"><path
             id="path364"
             style="fill:#4a49ca;fill-opacity:1;fill-rule:nonzero;stroke:none"
             d="m 0,0 c -2.856,2.51 -7.233,3.252 -10.716,1.725 -0.886,-0.389 -1.726,-0.937 -2.293,-1.721 -1.276,-1.765 -0.829,-4.347 0.496,-6.076 1.325,-1.73 3.333,-2.782 5.318,-3.683 3.596,-1.632 9.178,-1.959 13.007,-2.935 0,0 -0.016,7.6 -5.812,12.69" /></g><g
           transform="translate(335.084,376.0459)"
           id="g366"><path
             id="path368"
             style="fill:none;stroke:#0b43a4;stroke-width:1;stroke-linecap:round;stroke-linejoin:round;stroke-miterlimit:10;stroke-dasharray:none;stroke-opacity:1"
             d="m 0,0 c 2.378,-7.783 9.107,-13.656 16.6,-16.833 7.492,-3.177 15.745,-4.015 23.866,-4.541 8.121,-0.525 16.339,-0.787 24.192,-2.919 7.655,-2.078 15.277,-6.405 18.562,-13.624 3.997,-8.786 0.457,-19.292 -5.156,-27.146 -5.613,-7.853 -13.171,-14.183 -18.601,-22.164 -2.494,-3.664 -4.575,-7.954 -4.072,-12.358 0.672,-5.872 5.618,-10.195 10.214,-13.908" /></g><g
           transform="translate(353.8037,378.9009)"
           id="g370"><path
             id="path372"
             style="fill:none;stroke:#0b43a4;stroke-width:1;stroke-linecap:round;stroke-linejoin:round;stroke-miterlimit:10;stroke-dasharray:none;stroke-opacity:1"
             d="M 0,0 C 5.382,-5.954 9.684,-15.265 10.73,-23.222" /></g><g
           transform="translate(335.707,355.9048)"
           id="g374"><path
             id="path376"
             style="fill:none;stroke:#0b43a4;stroke-width:1;stroke-linecap:round;stroke-linejoin:round;stroke-miterlimit:10;stroke-dasharray:none;stroke-opacity:1"
             d="m 0,0 c 3.077,-0.817 6.195,-1.639 9.379,-1.647 3.184,-0.008 6.872,1.755 9.161,3.968" /></g><g
           transform="translate(419.7607,356.3535)"
           id="g378"><path
             id="path380"
             style="fill:none;stroke:#0b43a4;stroke-width:1;stroke-linecap:round;stroke-linejoin:round;stroke-miterlimit:10;stroke-dasharray:none;stroke-opacity:1"
             d="m 0,0 c 2.883,-2.784 4.635,-6.707 4.785,-10.712 0.151,-4.005 -2.072,-8.859 -4.738,-11.85" /></g><g
           transform="translate(389.5957,338.1768)"
           id="g382"><path
             id="path384"
             style="fill:none;stroke:#0b43a4;stroke-width:1;stroke-linecap:round;stroke-linejoin:round;stroke-miterlimit:10;stroke-dasharray:none;stroke-opacity:1"
             d="m 0,0 c 5.758,-5.301 10.771,-9.587 17.173,-14.09 2.922,-2.055 8.723,-4.689 11.299,-4.011" /></g><g
           id="g386"><g
             id="g388" /><g
             id="g400"><g
               style="opacity:0.19999701"
               id="g398"
               clip-path="url(#clipPath392)"><g
                 id="g396"
                 transform="translate(456.5498,217.7402)"><path
                   id="path394"
                   style="fill:#5275a0;fill-opacity:1;fill-rule:nonzero;stroke:none"
                   d="M 0,0 C -1.52,-0.87 -3.12,-1.63 -4.729,-2.311 -10.99,-4.94 -17.72,-6.431 -24.5,-6.69 c -9.88,-0.371 -20.04,1.81 -29.52,-1.01 -4.35,-1.29 -8.36,-3.64 -11.65,-6.75 -0.33,-0.16 -0.66,-0.34 -0.99,-0.53 -0.79,6.69 15.89,15.41 20.96,17.68 9.15,4.1 19.35,5.92 29.35,5.119 C -11.97,7.47 -7.479,6.609 -3.87,4.12 -2.319,3.05 -0.96,1.62 0,0" /></g></g></g></g><g
           transform="translate(440.1992,221.5615)"
           id="g402"><path
             id="path404"
             style="fill:#52d2bc;fill-opacity:1;fill-rule:nonzero;stroke:none"
             d="m 0,0 c 4.378,-0.349 8.867,-1.208 12.483,-3.699 3.617,-2.492 6.16,-6.942 5.316,-11.251 -0.982,-5.02 -6.172,-8.285 -11.249,-8.903 -5.077,-0.617 -10.151,0.78 -15.16,1.811 -11.086,2.283 -22.532,2.806 -33.78,1.545 -2.804,-0.315 -5.466,-0.871 -7.923,-2.307 -0.79,6.695 15.898,15.41 20.968,17.683 C -20.197,-1.022 -9.999,0.797 0,0" /></g><g
           transform="translate(394.2275,202.9775)"
           id="g406"><path
             id="path408"
             style="fill:none;stroke:#00ad9f;stroke-width:1;stroke-linecap:round;stroke-linejoin:round;stroke-miterlimit:10;stroke-dasharray:none;stroke-opacity:1"
             d="m 0,0 c 8.284,7.281 29.548,12.224 44.586,10.631 4.53,-0.48 9.1,-1.832 12.582,-4.77" /></g><g
           transform="translate(378.7539,284.7769)"
           id="g410"><path
             id="path412"
             style="fill:none;stroke:#0b43a4;stroke-width:1;stroke-linecap:round;stroke-linejoin:round;stroke-miterlimit:10;stroke-dasharray:4;stroke-dashoffset:0;stroke-opacity:1"
             d="m 0,0 80.886,0.167 c 9.491,0.02 17.202,-7.659 17.221,-17.151 0.02,-9.492 -7.659,-17.203 -17.151,-17.222 L 25.628,-34.32" /></g><g
           transform="translate(134.0103,225.3867)"
           id="g414"><path
             id="path416"
             style="fill:none;stroke:#0b43a4;stroke-width:1;stroke-linecap:round;stroke-linejoin:round;stroke-miterlimit:10;stroke-dasharray:4;stroke-dashoffset:0;stroke-opacity:1"
             d="m 0,0 -56.567,-0.116 c -5.358,-0.012 -9.692,-4.363 -9.681,-9.721 0.011,-5.358 4.364,-9.692 9.721,-9.681 l 16.493,0.034" /></g><g
           transform="translate(43.7231,181.5801)"
           id="g418"><path
             id="path420"
             style="fill:none;stroke:#c8dbfb;stroke-width:1;stroke-linecap:round;stroke-linejoin:round;stroke-miterlimit:10;stroke-dasharray:4;stroke-dashoffset:0;stroke-opacity:1"
             d="m 0,0 c -19.379,-0.04 -19.783,-28.945 4.875,-28.895 24.658,0.052 348.127,0.719 363.381,0.75 15.253,0.033 16.864,23.83 -1.994,23.791 -37.525,-0.078 -38.771,17.82 -17.936,17.863" /></g><g
           transform="translate(48.2578,182.3848)"
           id="g422"><path
             id="path424"
             style="fill:#5193f4;fill-opacity:1;fill-rule:nonzero;stroke:none"
             d="m 0,0 c 0.445,-2.606 -1.309,-5.081 -3.916,-5.525 -2.607,-0.445 -5.081,1.308 -5.525,3.916 -0.445,2.606 1.308,5.081 3.915,5.525 C -2.918,4.36 -0.445,2.607 0,0" /></g><g
           transform="translate(401.3408,194.959)"
           id="g426"><path
             id="path428"
             style="fill:#0b43a4;fill-opacity:1;fill-rule:nonzero;stroke:none"
             d="m 0,0 c 0.445,-2.606 -1.309,-5.081 -3.915,-5.525 -2.607,-0.445 -5.081,1.308 -5.526,3.916 -0.445,2.606 1.308,5.081 3.916,5.525 C -2.918,4.36 -0.444,2.607 0,0" /></g><g
           id="g430"><g
             id="g432" /><g
             id="g444"><g
               style="opacity:0.19999701"
               id="g442"
               clip-path="url(#clipPath436)"><g
                 id="g440"
                 transform="translate(406.5576,111.3877)"><path
                   id="path438"
                   style="fill:#5275a0;fill-opacity:1;fill-rule:nonzero;stroke:none"
                   d="m 0,0 -300.889,-0.621 c -4.015,-0.009 -7.276,3.239 -7.284,7.254 l -0.411,199.332 c -0.009,4.015 3.239,7.276 7.253,7.284 l 300.89,0.621 c 4.013,0.008 7.275,-3.239 7.283,-7.254 L 7.253,7.283 C 7.262,3.27 4.014,0.008 0,0" /></g></g></g></g><g
           transform="translate(400.665,115.1963)"
           id="g446"><path
             id="path448"
             style="fill:#ffffff;fill-opacity:1;fill-rule:nonzero;stroke:none"
             d="m 0,0 -300.889,-0.621 c -4.014,-0.008 -7.275,3.239 -7.283,7.254 l -0.412,199.333 c -0.008,4.014 3.239,7.275 7.254,7.284 l 300.889,0.62 c 4.014,0.008 7.275,-3.239 7.284,-7.253 L 7.254,7.284 C 7.262,3.27 4.015,0.009 0,0" /></g><g
           transform="translate(399.7344,329.064)"
           id="g450"><path
             id="path452"
             style="fill:#0056ec;fill-opacity:1;fill-rule:nonzero;stroke:none"
             d="m 0,0 -299.602,-0.618 c -4.37,-0.009 -7.905,-3.559 -7.896,-7.929 l 0.015,-6.88 315.426,0.651 -0.014,6.88 C 7.92,-3.526 4.37,0.009 0,0" /></g><g
           transform="translate(100.4932,114.5752)"
           id="g454"><path
             id="path456"
             style="fill:#c8dbfb;fill-opacity:1;fill-rule:nonzero;stroke:none"
             d="M 0,0 45.268,0.094 44.857,199.171 -8.323,199.062 -7.928,7.887 C -7.919,3.522 -4.37,-0.009 0,0" /></g><g
           transform="translate(400.3125,329.0654)"
           id="g458"><path
             id="path460"
             style="fill:#0056ec;fill-opacity:1;fill-rule:nonzero;stroke:none"
             d="m 0,0 h -0.016 l -300.888,-0.621 c -4.014,-0.008 -7.262,-3.27 -7.254,-7.284 l 0.411,-199.332 c 0.009,-4.01 3.261,-7.254 7.269,-7.254 h 0.015 l 300.889,0.621 c 4.014,0.008 7.262,3.268 7.254,7.283 L 7.269,-7.254 C 7.26,-3.244 4.008,0 0,0 m 0.001,-2 c 2.898,0 5.262,-2.359 5.268,-5.258 L 5.68,-206.591 c 0.006,-2.905 -2.353,-5.273 -5.258,-5.279 l -300.9,-0.621 c -2.899,0 -5.262,2.358 -5.269,5.258 l -0.411,199.332 c -0.003,1.407 0.543,2.732 1.535,3.729 0.994,0.997 2.315,1.548 3.723,1.551 L -0.016,-2 h 0.017" /></g><g
           transform="translate(138.1265,129.793)"
           id="g462"><path
             id="path464"
             style="fill:#ffffff;fill-opacity:1;fill-rule:nonzero;stroke:none"
             d="m 0,0 -34.886,-0.072 c -1.539,-0.003 -2.789,1.242 -2.792,2.781 l -0.001,0.345 c -0.003,1.539 1.242,2.79 2.781,2.793 L -0.012,5.919 C 1.527,5.922 2.777,4.677 2.78,3.138 L 2.781,2.792 C 2.784,1.253 1.539,0.003 0,0" /></g><g
           transform="translate(133.9312,264.8511)"
           id="g466"><path
             id="path468"
             style="fill:#ffffff;fill-opacity:1;fill-rule:nonzero;stroke:none"
             d="m 0,0 -29.701,-0.062 c -2.82,-0.005 -5.111,2.276 -5.116,5.096 l -0.062,29.701 c -0.006,2.82 2.276,5.111 5.096,5.117 l 29.701,0.062 c 2.82,0.005 5.111,-2.276 5.117,-5.097 L 5.096,5.117 C 5.102,2.296 2.82,0.006 0,0" /></g><g
           transform="translate(261.082,175.8799)"
           id="g470"><path
             id="path472"
             style="fill:#c8dbfb;fill-opacity:1;fill-rule:nonzero;stroke:none"
             d="m 0,0 -103.479,-0.214 c -2.01,-0.004 -3.643,1.622 -3.647,3.633 l -10e-4,0.451 c -0.004,2.01 1.622,3.643 3.632,3.648 L -0.017,7.73 C 1.994,7.735 3.627,6.108 3.631,4.099 L 3.632,3.647 C 3.636,1.637 2.01,0.004 0,0" /></g><g
           transform="translate(255.1016,293.7783)"
           id="g474"><path
             id="path476"
             style="fill:#c8dbfb;fill-opacity:1;fill-rule:nonzero;stroke:none"
             d="m 0,0 -81.775,-0.168 c -2.01,-0.005 -3.643,1.622 -3.647,3.632 l -0.001,0.451 c -0.004,2.01 1.622,3.643 3.632,3.647 L -0.016,7.731 C 1.994,7.735 3.627,6.109 3.632,4.099 L 3.633,3.647 C 3.637,1.637 2.011,0.004 0,0" /></g><g
           transform="translate(384.3701,211.0771)"
           id="g478"><path
             id="path480"
             style="fill:#c8dbfb;fill-opacity:1;fill-rule:nonzero;stroke:none"
             d="m 0,0 -109.029,-0.225 c -2.01,-0.004 -3.643,1.622 -3.648,3.633 l -10e-4,0.451 c -0.004,2.01 1.622,3.643 3.633,3.648 L -0.017,7.731 C 1.994,7.735 3.627,6.109 3.631,4.099 L 3.632,3.647 C 3.637,1.638 2.01,0.005 0,0" /></g><g
           transform="translate(261.1143,159.8965)"
           id="g482"><path
             id="path484"
             style="fill:#c8dbfb;fill-opacity:1;fill-rule:nonzero;stroke:none"
             d="m 0,0 -103.478,-0.213 c -2.01,-0.005 -3.643,1.622 -3.647,3.632 l -0.001,0.451 c -0.004,2.011 1.622,3.644 3.632,3.648 L -0.016,7.731 C 1.995,7.735 3.628,6.109 3.632,4.099 L 3.633,3.647 C 3.637,1.638 2.011,0.004 0,0" /></g><g
           transform="translate(261.1475,143.9141)"
           id="g486"><path
             id="path488"
             style="fill:#c8dbfb;fill-opacity:1;fill-rule:nonzero;stroke:none"
             d="m 0,0 -103.478,-0.214 c -2.01,-0.004 -3.644,1.622 -3.647,3.632 l -0.001,0.451 c -0.005,2.011 1.622,3.644 3.632,3.648 L -0.016,7.73 C 1.994,7.734 3.628,6.108 3.632,4.098 L 3.633,3.646 C 3.637,1.637 2.011,0.004 0,0" /></g><g
           transform="translate(382.1582,133.4893)"
           id="g490"><path
             id="path492"
             style="fill:#c8dbfb;fill-opacity:1;fill-rule:nonzero;stroke:none"
             d="m 0,0 -104.285,-0.215 c -3.32,-0.007 -6.018,2.679 -6.025,5.999 l -0.091,44.789 c -0.007,3.321 2.678,6.018 5.999,6.025 l 104.285,0.215 c 3.32,0.006 6.017,-2.679 6.024,-6 L 5.999,6.024 C 6.006,2.704 3.32,0.007 0,0" /></g><g
           transform="translate(109.5381,321.1992)"
           id="g494"><path
             id="path496"
             style="fill:#c8dbfb;fill-opacity:1;fill-rule:nonzero;stroke:none"
             d="m 0,0 c 0.003,-1.408 -1.136,-2.552 -2.544,-2.554 -1.408,-0.003 -2.551,1.136 -2.554,2.543 -0.003,1.408 1.136,2.552 2.543,2.555 C -1.146,2.547 -0.003,1.408 0,0" /></g><g
           transform="translate(120.3291,321.2212)"
           id="g498"><path
             id="path500"
             style="fill:#c8dbfb;fill-opacity:1;fill-rule:nonzero;stroke:none"
             d="m 0,0 c 0.003,-1.408 -1.136,-2.551 -2.543,-2.554 -1.409,-0.003 -2.552,1.136 -2.555,2.544 -0.003,1.407 1.136,2.551 2.544,2.554 C -1.146,2.547 -0.003,1.408 0,0" /></g><g
           transform="translate(131.1206,321.2437)"
           id="g502"><path
             id="path504"
             style="fill:#c8dbfb;fill-opacity:1;fill-rule:nonzero;stroke:none"
             d="m 0,0 c 0.003,-1.408 -1.136,-2.551 -2.544,-2.554 -1.408,-0.003 -2.551,1.136 -2.554,2.544 -0.003,1.407 1.136,2.551 2.544,2.554 C -1.146,2.547 -0.003,1.408 0,0" /></g><g
           transform="translate(165.7168,297.4595)"
           id="g506"><path
             id="path508"
             style="fill:#c8dbfb;fill-opacity:1;fill-rule:nonzero;stroke:none"
             d="m 0,0 c 0.008,-4.071 -3.285,-7.377 -7.355,-7.386 -4.071,-0.009 -7.378,3.285 -7.386,7.356 -0.009,4.071 3.284,7.377 7.355,7.385 C -3.315,7.364 -0.008,4.071 0,0" /></g><g
           transform="translate(136.002,258.6216)"
           id="g510"><path
             id="path512"
             style="fill:#ffffff;fill-opacity:1;fill-rule:nonzero;stroke:none"
             d="m 0,0 -32.647,-0.067 c -0.759,-0.002 -1.375,0.611 -1.377,1.37 v 0.171 c -0.002,0.758 0.612,1.374 1.37,1.376 L -0.006,2.917 C 0.753,2.918 1.369,2.305 1.371,1.546 V 1.376 C 1.373,0.618 0.759,0.001 0,0" /></g><g
           transform="translate(136.0151,252.3877)"
           id="g514"><path
             id="path516"
             style="fill:#ffffff;fill-opacity:1;fill-rule:nonzero;stroke:none"
             d="m 0,0 -32.648,-0.067 c -0.758,-0.002 -1.374,0.612 -1.376,1.37 v 0.171 c -0.002,0.758 0.611,1.375 1.37,1.376 L -0.006,2.917 C 0.752,2.919 1.369,2.305 1.37,1.547 L 1.371,1.376 C 1.372,0.618 0.758,0.002 0,0" /></g><g
           transform="translate(173.397,239.207)"
           id="g518"><path
             id="path520"
             style="fill:#c8dbfb;fill-opacity:1;fill-rule:nonzero;stroke:none"
             d="m 0,0 -9.233,-0.094 0.068,-38.678 -7.966,-0.016 c -2.811,-0.006 -5.095,2.268 -5.101,5.079 l -0.147,71.526 c -0.006,2.841 2.292,5.149 5.133,5.155 l 17.145,0.044 z" /></g><g
           transform="translate(233.2871,282.3379)"
           id="g522"><path
             id="path524"
             style="fill:#c8dbfb;fill-opacity:1;fill-rule:nonzero;stroke:none"
             d="m 0,0 h -0.013 l -76.256,-0.157 c -3.32,-0.007 -6.006,-2.704 -5.999,-6.024 l 0.144,-69.737 c 0.007,-3.316 2.697,-5.999 6.011,-5.999 h 0.013 l 76.256,0.157 c 3.32,0.007 6.006,2.703 5.999,6.024 L 6.011,-5.999 C 6.004,-2.683 3.314,0 0,0 m 0,0 v -1 c 2.758,0 5.005,-2.243 5.011,-5.001 l 0.144,-69.737 c 0.006,-2.764 -2.238,-5.016 -5.001,-5.022 l -76.267,-0.157 c -2.757,0 -5.005,2.243 -5.011,5.001 l -0.144,69.737 c -0.005,2.763 2.238,5.016 5.001,5.022 L -0.01,-1 0,0" /></g><g
           transform="translate(360.6279,224.9395)"
           id="g526"><path
             id="path528"
             style="fill:#c8dbfb;fill-opacity:1;fill-rule:nonzero;stroke:none"
             d="m 0,0 -101.721,22.989 c -3.238,0.732 -5.27,3.95 -4.538,7.189 l 11.443,50.629 c 0.731,3.238 3.95,5.27 7.188,4.538 L 14.093,62.356 c 3.238,-0.732 5.269,-3.951 4.538,-7.189 L 7.188,4.538 C 6.457,1.3 3.238,-0.732 0,0" /></g><g
           transform="translate(163.7632,87.2393)"
           id="g530"><path
             id="path532"
             style="fill:#0056ec;fill-opacity:1;fill-rule:nonzero;stroke:none"
             d="m 0,0 -14.233,-0.029 -3.483,18.133 21.124,0.043 z" /></g><g
           transform="translate(149.9873,105.3516)"
           id="g534"><path
             id="path536"
             style="fill:#c8dbfb;fill-opacity:1;fill-rule:nonzero;stroke:none"
             d="m 0,0 c 0.003,-1.479 -0.279,-3.964 0.706,-4 0.985,-0.037 0.578,2.357 1.701,2.293 0.716,-0.041 -0.335,-7.879 2.375,-8.067 1.863,-0.129 1.522,3.843 1.714,6.331 0.129,1.682 2.284,1.352 2.302,0.239 0.02,-1.245 -0.06,-2.079 0,-3.496 0.101,-2.366 3.74,-1.738 3.61,1.424 -0.13,3.163 -0.008,5.301 -0.008,5.301 z" /></g><g
           transform="translate(146.5801,94.3994)"
           id="g538"><path
             id="path540"
             style="fill:#0c2340;fill-opacity:1;fill-rule:nonzero;stroke:none"
             d="m 0,0 c -0.291,-0.001 -0.571,0.026 -0.841,0.087 -1.048,0.231 -1.784,0.782 -2.187,1.639 -1.451,3.076 2.369,8.84 2.518,9.096 L -0.311,9.785 C -0.346,9.725 -3.666,4.771 -2.362,2.006 -2.052,1.349 -1.5,0.94 -0.675,0.758 -0.447,0.708 -0.208,0.684 0.04,0.685 c 5.126,0.008 13.889,9.564 13.985,9.673 0.358,0.431 1.028,0.025 0.79,-0.337 C 14.414,9.561 5.51,0.012 0,0" /></g><g
           id="g542"><g
             id="g544" /><g
             id="g556"><g
               style="opacity:0.19999701"
               id="g554"
               clip-path="url(#clipPath548)"><g
                 id="g552"
                 transform="translate(296.1465,342.3765)"><path
                   id="path550"
                   style="fill:#5275a0;fill-opacity:1;fill-rule:nonzero;stroke:none"
                   d="m 0,0 c -20.229,0.773 -48.077,-14.187 -38.198,-50.766 -0.215,-3.093 1.637,-5.299 3.607,-4.695 1.97,0.604 0.234,6.466 0.234,6.466 3.368,27.196 9.668,31.901 20.363,31.803 l 25.09,0.051 c 6.2,-0.913 17.472,-5.25 19.164,-27.021 l 6.246,-1.153 C 36.992,-29.59 33.186,-1.269 0,0" /></g></g></g></g><g
           transform="translate(296.1465,345.562)"
           id="g558"><path
             id="path560"
             style="fill:#ef832b;fill-opacity:1;fill-rule:nonzero;stroke:none"
             d="m 0,0 c -20.229,0.773 -48.077,-14.187 -38.198,-50.765 l 3.841,1.77 c 3.368,27.196 9.668,31.901 20.363,31.803 l 25.09,0.052 c 6.2,-0.914 17.774,-6.417 19.465,-28.187 l 5.945,0.012 C 36.992,-29.589 33.186,-1.269 0,0" /></g><g
           transform="translate(292.0088,344.9668)"
           id="g562"><path
             id="path564"
             style="fill:#ffb9a3;fill-opacity:1;fill-rule:nonzero;stroke:none"
             d="m 0,0 -3.004,-6.604 c 0,0 0.358,-3.719 4.008,-3.642 3.649,0.078 4.138,1.764 4.138,1.764 l 0.475,7.581 z" /></g><g
           transform="translate(307.4531,350.4741)"
           id="g566"><path
             id="path568"
             style="fill:#ffb9a3;fill-opacity:1;fill-rule:nonzero;stroke:none"
             d="m 0,0 c -3.425,-6.055 -4.942,-7.939 -9.421,-8.849 -5.8,-1.179 -12.303,2.732 -9.28,12.373 2.465,7.861 6.196,6.65 9.85,6.353 C -5.196,9.58 3.7,6.542 0,0" /></g><g
           transform="translate(293.8389,355.2515)"
           id="g570"><path
             id="path572"
             style="fill:#0c2340;fill-opacity:1;fill-rule:nonzero;stroke:none"
             d="m 0,0 c -0.91,0.474 -2.081,0.071 -2.787,-0.673 -0.727,-0.765 -1.078,-1.911 -0.769,-2.92 -1.402,-0.02 -2.632,-1.394 -2.499,-2.791 -0.958,2.235 -0.439,4.559 -0.629,6.846 -0.189,2.287 0.062,4.773 1.543,6.524 0.608,0.719 1.391,1.271 2.222,1.713 3.154,1.676 7.118,1.732 10.318,0.146 C 8.063,8.516 9.724,7.47 12.042,8.03 16.46,9.099 19.045,6.111 16.391,3.312 17.243,3.004 18.178,2.624 18.564,1.804 18.663,1.594 18.715,1.332 18.583,1.141 18.49,1.008 18.331,0.941 18.178,0.89 17.434,0.639 16.627,0.575 15.853,0.705 16.15,0.451 17.79,0.353 18.284,-0.601 c 1.318,-2.539 -3.902,-1.257 -4.697,-1.003 0.908,-0.17 3.292,-2.072 2.529,-3.377 -0.15,-0.258 -3.369,-2.133 -6.752,1.796 C 8.577,-2.271 7.596,-1.427 6.431,-1.116 5.517,-0.872 4.56,-1.21 3.674,-1.543 3.028,-1.787 1.378,-2.79 0.905,-2.193 0.385,-1.536 1.055,-0.524 0,0" /></g><g
           transform="translate(327.3477,300.2295)"
           id="g574"><path
             id="path576"
             style="fill:#ffb9a3;fill-opacity:1;fill-rule:nonzero;stroke:none"
             d="m 0,0 c -0.896,-3.086 -1.804,-3.393 -0.717,-3.884 1.088,-0.492 1.967,1.238 1.967,1.238 l 5.018,-0.998 c 0,0 -1.132,3.259 -1.923,3.653 C 3.554,0.402 0,0 0,0" /></g><g
           transform="translate(261.7891,296.5669)"
           id="g578"><path
             id="path580"
             style="fill:#ffb9a3;fill-opacity:1;fill-rule:nonzero;stroke:none"
             d="m 0,0 c 0.655,-1.628 0.836,-1.639 1.749,-3.596 1.746,-3.74 -2.343,-9.655 -4.882,-3.197 -0.695,1.77 -0.708,5.023 -0.708,5.023 z" /></g><g
           transform="translate(300.9844,363.5698)"
           id="g582"><path
             id="path584"
             style="fill:#0c2340;fill-opacity:1;fill-rule:nonzero;stroke:none"
             d="m 0,0 c 3.428,-0.186 7.65,2.235 10.337,-0.874 0.247,-0.286 0.747,0.093 0.527,0.407 C 8.297,3.219 3.527,0.477 0,0.57 -0.368,0.58 -0.364,0.02 0,0" /></g><g
           transform="translate(302.3613,365.4624)"
           id="g586"><path
             id="path588"
             style="fill:#0c2340;fill-opacity:1;fill-rule:nonzero;stroke:none"
             d="m 0,0 c -2.345,-0.407 -4.604,0.697 -6.953,0.329 -1.911,-0.299 -3.612,-1.278 -5.055,-2.533 -0.369,-0.321 0.114,-0.952 0.526,-0.681 2.02,1.33 3.961,2.478 6.481,2.294 1.829,-0.134 3.385,-0.675 5.2,-0.133 C 0.67,-0.583 0.469,0.081 0,0" /></g><g
           transform="translate(289.0225,362.2622)"
           id="g590"><path
             id="path592"
             style="fill:#0c2340;fill-opacity:1;fill-rule:nonzero;stroke:none"
             d="m 0,0 c -1.65,-1.026 -2.602,-2.397 -2.797,-4.373 -0.141,-1.416 -0.183,-4.673 1.248,-5.473 0.343,-0.191 0.702,0.261 0.422,0.546 -0.918,0.931 -0.999,3.441 -0.934,4.624 0.101,1.813 0.859,3.192 2.297,4.272 C 0.471,-0.229 0.263,0.164 0,0" /></g><g
           transform="translate(314.3936,356.6313)"
           id="g594"><path
             id="path596"
             style="fill:#0c2340;fill-opacity:1;fill-rule:nonzero;stroke:none"
             d="M 0,0 C -0.848,1.472 -3.021,2.773 -4.69,1.839 -4.952,1.692 -4.828,1.292 -4.54,1.286 -3.81,1.271 -3.143,1.366 -2.426,1.147 -1.617,0.899 -0.94,0.428 -0.452,-0.264 -0.261,-0.535 0.171,-0.297 0,0" /></g><g
           transform="translate(203.1162,204.083)"
           id="g598"><path
             id="path600"
             style="fill:#0b43a4;fill-opacity:1;fill-rule:nonzero;stroke:none"
             d="M 0,0 C 10.605,-3.896 19.816,-16.064 17.703,-24.908 15.315,-34.897 8.424,-39.206 8.424,-39.206 l -2.172,4.011 c 0,0 5.51,8.614 5.031,12.681 -0.766,6.515 -8.992,10.866 -8.992,10.866 z" /></g><g
           transform="translate(177.0049,91.3604)"
           id="g602"><path
             id="path604"
             style="fill:#0c2340;fill-opacity:1;fill-rule:nonzero;stroke:none"
             d="M 0,0 C 0,0 -6.514,-2.631 -8.142,-4.115 L 4.76,-4.09 4.751,0.01 Z" /></g><g
           transform="translate(205.5146,91.6113)"
           id="g606"><path
             id="path608"
             style="fill:#0c2340;fill-opacity:1;fill-rule:nonzero;stroke:none"
             d="m 0,0 c 0,0 1.849,-2.144 2.189,-4.29 l -8.803,-0.018 c 0.152,1.485 0.784,2.907 1.641,4.298 z" /></g><g
           transform="translate(206.0498,91.4199)"
           id="g610"><path
             id="path612"
             style="fill:#047f76;fill-opacity:1;fill-rule:nonzero;stroke:none"
             d="m 0,0 -6.01,-0.01 c 0.12,7.08 -1.34,31.21 -2.75,49.25 -0.83,10.58 -1.65,19.08 -2.13,20.8 l 3.22,0.71 12.15,2.7 C 6.56,63.95 1.76,20.33 0,0" /></g><g
           transform="translate(183.9609,161.8408)"
           id="g614"><path
             id="path616"
             style="fill:#009790;fill-opacity:1;fill-rule:nonzero;stroke:none"
             d="m 0,0 c -4.687,-7.385 -5.9,-60.743 -7.862,-70.633 l 5.7,-0.323 c 0,0 6.546,33.642 20.489,71.46 z" /></g><g
           id="g618"><g
             id="g620" /><g
             id="g632"><g
               style="opacity:0.19999701"
               id="g630"
               clip-path="url(#clipPath624)"><g
                 id="g628"
                 transform="translate(204.6899,162.3496)"><path
                   id="path626"
                   style="fill:#5275a0;fill-opacity:1;fill-rule:nonzero;stroke:none"
                   d="m 0,0 c -2.75,-7.47 -5.22,-14.779 -7.4,-21.689 -0.83,10.58 -1.65,19.08 -2.13,20.799 l 3.22,0.71 z" /></g></g></g></g><g
           transform="translate(183.9609,161.8408)"
           id="g634"><path
             id="path636"
             style="fill:#009790;fill-opacity:1;fill-rule:nonzero;stroke:none"
             d="m 0,0 c -4.687,-7.385 -5.9,-60.743 -7.862,-70.633 l 5.7,-0.323 c 0,0 6.546,33.642 20.489,71.46 z" /></g><g
           transform="translate(187.5435,221.4092)"
           id="g638"><path
             id="path640"
             style="fill:#ffb9a3;fill-opacity:1;fill-rule:nonzero;stroke:none"
             d="m 0,0 c 0,0 -3.649,-13.905 5.466,-13.887 l -0.541,-3.553 6.923,-0.757 -1.496,4.951 c 0,0 1.368,8.743 1.46,10.321 C 11.983,0.023 3.723,5.219 0,0" /></g><g
           transform="translate(165.0254,225.6475)"
           id="g642"><path
             id="path644"
             style="fill:#0c2340;fill-opacity:1;fill-rule:nonzero;stroke:none"
             d="M 0,0 -2.686,-0.005 -2.71,11.344 -0.024,11.35 Z" /></g><g
           transform="translate(171.3687,237.0098)"
           id="g646"><path
             id="path648"
             style="fill:#0056ec;fill-opacity:1;fill-rule:nonzero;stroke:none"
             d="m 0,0 -15.422,-0.03 c -1.078,-0.003 -1.955,0.87 -1.957,1.949 l -10e-4,0.404 c -0.003,1.079 0.87,1.956 1.95,1.958 L -0.009,4.312 C 1.07,4.313 1.947,3.44 1.949,2.361 L 1.95,1.958 C 1.953,0.879 1.079,0.002 0,0" /></g><g
           transform="translate(161.5913,222.6826)"
           id="g650"><path
             id="path652"
             style="fill:#ffb9a3;fill-opacity:1;fill-rule:nonzero;stroke:none"
             d="M 0,0 C -0.073,2.574 -2.196,1.9 -1.026,6.1 -0.303,8.697 5.06,5.684 4.392,3.882 3.725,2.081 2.955,-0.767 2.955,-0.767 Z" /></g><g
           transform="translate(193.0747,204.7881)"
           id="g654"><path
             id="path656"
             style="fill:#0056ec;fill-opacity:1;fill-rule:nonzero;stroke:none"
             d="m 0,0 c -13.63,-0.903 -14.527,-5.497 -20.627,-4.778 -9.028,1.063 -7.449,17.829 -6.333,23.841 l -5.392,-0.009 c 0,0 -9.72,-38.194 20.98,-31.132 -1.179,-6.691 6.455,-17.615 -0.947,-30.876 11.654,-3.165 22.528,-3.942 31.84,0.063 -1.631,2.196 3.341,24.387 -6.394,40.362 C 11.226,0.589 0.998,0.065 0,0" /></g><g
           transform="translate(193.0747,204.7881)"
           id="g658"><path
             id="path660"
             style="fill:#0056ec;fill-opacity:1;fill-rule:nonzero;stroke:none"
             d="m 0,0 c -13.63,-0.903 -14.527,-5.497 -20.627,-4.778 -9.028,1.063 -7.449,17.829 -6.333,23.841 l -5.392,-0.009 c 0,0 -9.72,-38.194 20.98,-31.132 -1.179,-6.691 6.455,-17.615 -0.947,-30.876 11.654,-3.165 22.528,-3.942 31.84,0.063 -1.631,2.196 3.341,24.387 -6.394,40.362 C 11.226,0.589 0.998,0.065 0,0" /></g><g
           transform="translate(191.1968,218.7441)"
           id="g662"><path
             id="path664"
             style="fill:#ef832b;fill-opacity:1;fill-rule:nonzero;stroke:none"
             d="m 0,0 c 0.889,-0.227 1.923,-0.397 2.398,-1.152 0.309,-0.491 0.287,-1.1 0.257,-1.671 0.163,0.597 0.825,1.028 1.464,0.954 0.64,-0.073 1.176,-0.643 1.188,-1.26 0.005,-0.29 -0.091,-0.572 -0.198,-0.844 -0.266,-0.674 -0.607,-1.323 -1.014,-1.929 1.114,-0.41 2.046,-3.666 2.603,-4.679 1.873,0.469 6.038,2.078 6.401,8.71 0.17,3.089 -0.772,6.787 -4.123,8.845 C 6.609,8.426 2.682,8.446 -0.027,7.754 -2.225,7.192 -5.73,4.999 -4.096,2.434 -3.271,1.139 -1.467,0.375 0,0" /></g><g
           transform="translate(202.8721,222.9668)"
           id="g666"><path
             id="path668"
             style="fill:#ef832b;fill-opacity:1;fill-rule:nonzero;stroke:none"
             d="m 0,0 c 1.269,0.422 2.878,0.198 3.64,-0.861 0.595,-0.827 0.541,-1.913 0.734,-2.9 0.092,-0.475 0.261,-0.962 0.63,-1.29 0.442,-0.391 1.082,-0.486 1.683,-0.518 1.467,-0.078 2.953,0.107 4.399,-0.138 1.447,-0.246 2.926,-1.063 3.338,-2.415 0.228,-0.748 0.104,-1.569 0.377,-2.303 0.41,-1.1 1.582,-1.726 2.603,-2.366 2.172,-1.36 4.016,-3.197 5.353,-5.328 0.847,-1.35 1.498,-2.849 1.601,-4.42 0.102,-1.571 1.235,-3.647 0.934,-5.194 -0.326,-1.668 -1.967,-3.926 -5.21,-4.97 -5.603,-1.803 -7.378,-2.584 -12.747,0.606 -0.647,0.385 -1.912,1.695 -2.497,2.162 -0.459,0.368 -0.75,0.899 -0.911,1.452 -0.448,1.541 0.07,3.201 0.874,4.602 0.805,1.402 1.889,2.641 2.708,4.034 0.492,0.838 0.894,1.769 0.847,2.729 -0.017,0.359 -0.108,0.735 -0.369,0.993 -0.226,0.224 -0.55,0.329 -0.868,0.392 -1.179,0.23 -2.476,-0.014 -3.544,0.515 -1.039,0.516 -1.608,1.771 -1.293,2.85 0.211,0.722 0.757,1.329 0.912,2.063 0.224,1.055 -0.438,2.141 -1.357,2.759 -0.92,0.618 -2.053,0.858 -3.16,1.04 -0.545,0.09 -1.116,0.179 -1.56,0.497 -0.547,0.393 -0.798,1.079 -0.791,1.735 C -3.65,-2.201 -1.961,-0.653 0,0" /></g><g
           transform="translate(201.8672,217.3779)"
           id="g670"><path
             id="path672"
             style="fill:#ef832b;fill-opacity:1;fill-rule:nonzero;stroke:none"
             d="m 0,0 c 6.743,-1.46 -1.768,-7.849 1.796,-10.907 1.016,-0.872 2.201,-0.597 3.392,-0.762 4.578,-0.633 2.075,-3.742 1.763,-6.179 -0.047,-0.367 0.562,-0.443 0.644,-0.087 0.388,1.684 1.935,3.74 1.137,5.531 -0.702,1.578 -2.441,1.393 -3.867,1.436 -1.787,0.054 -3.76,-0.003 -3.09,3.555 0.149,0.791 0.782,1.594 1.09,2.338 0.354,0.858 0.591,1.71 0.397,2.647 C 2.935,-0.84 1.61,0.093 0.096,0.347 -0.128,0.384 -0.229,0.05 0,0" /></g><g
           transform="translate(187.9717,225.6309)"
           id="g674"><path
             id="path676"
             style="fill:#ef832b;fill-opacity:1;fill-rule:nonzero;stroke:none"
             d="m 0,0 c 5.2,2.64 10.383,2.113 14.773,-1.759 0.299,-0.262 0.702,0.139 0.437,0.437 C 11.357,3.014 4.505,3.78 -0.142,0.243 -0.283,0.136 -0.166,-0.084 0,0" /></g><g
           transform="translate(362.6338,209.3193)"
           id="g678"><path
             id="path680"
             style="fill:#ffb9a3;fill-opacity:1;fill-rule:nonzero;stroke:none"
             d="m 0,0 -2.254,-4.531 5.508,-2.252 0.588,5.217 z" /></g><g
           transform="translate(365.959,224.0703)"
           id="g682"><path
             id="path684"
             style="fill:#ffb9a3;fill-opacity:1;fill-rule:nonzero;stroke:none"
             d="m 0,0 c -12.492,-5.437 -7.374,-18.616 0.23,-17.068 3.701,0.753 5.575,12.67 5.575,12.67 z" /></g><g
           transform="translate(370.1084,225.9453)"
           id="g686"><path
             id="path688"
             style="fill:#4a49ca;fill-opacity:1;fill-rule:nonzero;stroke:none"
             d="m 0,0 c -0.411,0.765 -0.8,1.579 -1.477,2.123 -0.676,0.544 -1.749,0.716 -2.384,0.125 -0.84,-0.781 -0.349,-2.244 0.503,-3.014 -0.733,-0.088 -1.603,0.417 -2.143,-0.086 -0.408,-0.381 -0.267,-1.057 -0.032,-1.565 0.551,-1.195 1.451,-2.227 2.559,-2.935 -0.633,-0.36 -1.368,-1.055 -0.988,-1.677 0.106,-0.172 0.282,-0.291 0.386,-0.464 0.242,-0.404 0.008,-0.917 -0.236,-1.32 -0.394,-0.65 -0.819,-1.282 -1.273,-1.891 0.429,0.589 1.476,0.347 1.79,-0.311 0.315,-0.657 0.041,-1.469 -0.445,-2.011 -0.27,-0.302 -0.614,-0.553 -1.008,-0.644 -0.344,-0.079 -1.856,-4.76 -0.676,-5.677 1.459,-1.132 6.424,-0.149 7.142,1.131 0.718,-0.779 1.769,-1.369 2.809,-1.162 1.039,0.206 1.832,1.488 1.272,2.387 1.123,-0.414 2.489,-0.049 3.256,0.871 0.766,0.92 0.879,2.329 0.268,3.359 0.613,0.185 0.736,1.013 0.579,1.633 -0.316,1.255 -1.339,2.306 -2.585,2.656 0.633,-0.01 1.135,0.626 1.165,1.258 0.03,0.632 -0.298,1.228 -0.697,1.719 C 6.611,-4.049 5.224,-3.662 3.491,-3.443 1.739,-3.223 0.774,-1.439 0,0" /></g><g
           transform="translate(358.4023,92.2275)"
           id="g690"><path
             id="path692"
             style="fill:#0c2340;fill-opacity:1;fill-rule:nonzero;stroke:none"
             d="m 0,0 c 0,0 -7.309,-3.51 -8.29,-4.604 0,0 14.381,-0.647 15.507,0.033 C 8.342,-3.893 4.914,0.01 4.914,0.01 Z" /></g><g
           transform="translate(385.5928,96.1953)"
           id="g694"><path
             id="path696"
             style="fill:#0c2340;fill-opacity:1;fill-rule:nonzero;stroke:none"
             d="m 0,0 c 0,0 -6.425,-4.946 -7.157,-6.22 0,0 15.163,2.251 15.163,3.241 0,0.991 -3.201,4.006 -3.201,4.006 z" /></g><g
           transform="translate(365.4697,159.9893)"
           id="g698"><path
             id="path700"
             style="fill:#d8742a;fill-opacity:1;fill-rule:nonzero;stroke:none"
             d="m 0,0 c -0.271,-1.486 -10.277,-40.991 18.354,-64.675 l 8.294,1.902 c 0,0 -9.652,9.053 -14.201,25.345 -4.301,15.407 -0.885,16.918 1.695,25.404 2.855,9.392 0.731,16.211 0.731,16.211 z" /></g><g
           transform="translate(351.7852,160.1104)"
           id="g702"><path
             id="path704"
             style="fill:#ef832b;fill-opacity:1;fill-rule:nonzero;stroke:none"
             d="m 0,0 c -4.539,-10.848 -12.332,-47.816 4.652,-68.632 l 8.482,0.018 c 0,0 -6.681,7.322 -7.428,24.31 -0.746,16.988 3.572,24.446 6.619,30.051 3.046,5.606 5.865,15.132 5.865,15.132 z" /></g><g
           transform="translate(345.7998,227.3604)"
           id="g706"><path
             id="path708"
             style="fill:#0b43a4;fill-opacity:1;fill-rule:nonzero;stroke:none"
             d="m 0,0 c -2.253,-7.944 -2.994,-22.621 8.292,-28.533 l 7.555,1.841 c 0,0 -13.618,7.139 -10.701,25.184 z" /></g><g
           transform="translate(324.9902,231.4268)"
           id="g710"><path
             id="path712"
             style="fill:#0056ec;fill-opacity:1;fill-rule:nonzero;stroke:none"
             d="m 0,0 5.864,0.724 c 0,0 -0.706,-24.623 27.731,-26.697 21.707,-1.583 23.413,-42.318 23.413,-42.318 -6.999,-4.712 -18.745,-6.139 -33.795,-5.06 0,0 0.963,29.062 -1.428,37.017 0,0 -23.626,7.434 -21.785,36.334" /></g><g
           transform="translate(317.8203,235.8965)"
           id="g714"><path
             id="path716"
             style="fill:#ffb9a3;fill-opacity:1;fill-rule:nonzero;stroke:none"
             d="m 0,0 c -0.992,-1.15 3.151,-2.609 7.17,-4.47 l 5.146,0.635 c 0,0 0.06,1.028 -0.004,2.1 C 12.247,-0.664 11.71,-0.053 11.1,-0.973 10.489,-1.892 7.888,-2.203 6.662,-1.364 5.436,-0.524 0.993,1.149 0,0" /></g><g
           transform="translate(345.7998,227.3604)"
           id="g718"><path
             id="path720"
             style="fill:#ffb9a3;fill-opacity:1;fill-rule:nonzero;stroke:none"
             d="m 0,0 c -1.885,1.854 -1.385,1.741 -1.385,1.741 l 5.751,-1.3 c 0,0 1.265,2.807 2.336,2.885 C 7.773,3.405 5.895,1.393 6.325,0.646 6.756,-0.099 5.146,-1.508 5.146,-1.508 Z" /></g><g
           transform="translate(373.3369,223.2334)"
           id="g722"><path
             id="path724"
             style="fill:#4a49ca;fill-opacity:1;fill-rule:nonzero;stroke:none"
             d="M 0,0 C 1.178,-0.301 2.384,-0.421 3.359,-1.225 4.327,-2.023 4.765,-3.392 4.066,-4.506 3.739,-5.028 4.517,-5.436 4.869,-4.976 5.765,-3.807 5.522,-2.203 4.622,-1.1 3.585,0.174 1.656,0.7 0.071,0.53 -0.212,0.499 -0.316,0.081 0,0" /></g><g
           transform="translate(378.5371,212.5645)"
           id="g726"><path
             id="path728"
             style="fill:#4a49ca;fill-opacity:1;fill-rule:nonzero;stroke:none"
             d="M 0,0 C 0.779,-0.458 1.435,-1.203 1.104,-2.166 0.796,-3.058 -0.111,-3.59 -0.839,-4.101 -1.189,-4.347 -0.888,-4.886 -0.5,-4.681 0.579,-4.11 1.723,-3.308 1.891,-1.995 2.038,-0.848 1.269,0.025 0.315,0.54 -0.038,0.731 -0.348,0.205 0,0" /></g><g
           transform="translate(365.4043,206.6045)"
           id="g730"><path
             id="path732"
             style="fill:#4a49ca;fill-opacity:1;fill-rule:nonzero;stroke:none"
             d="M 0,0 C 2.65,-1.647 6.397,-1.38 8.588,0.937 8.858,1.222 8.493,1.763 8.148,1.507 5.752,-0.268 3.032,-0.843 0.217,0.371 -0.031,0.478 -0.241,0.149 0,0" /></g><g
           transform="translate(378.8838,221.4932)"
           id="g734"><path
             id="path736"
             style="fill:#4a49ca;fill-opacity:1;fill-rule:nonzero;stroke:none"
             d="m 0,0 c 1.521,-1.446 -0.003,-3.428 -0.979,-4.669 -0.214,-0.274 0.125,-0.643 0.393,-0.393 0.869,0.813 1.737,1.706 1.856,2.955 C 1.357,-1.17 0.973,-0.276 0.137,0.179 0.026,0.238 -0.097,0.092 0,0" /></g><g
           transform="translate(209.7271,404.1777)"
           id="g738"><path
             id="path740"
             style="fill:#0b43a4;fill-opacity:1;fill-rule:nonzero;stroke:none"
             d="m 0,0 -2.346,5.729 22.63,8.592 z" /></g><g
           transform="translate(210.8667,407.7085)"
           id="g742"><path
             id="path744"
             style="fill:#5193f4;fill-opacity:1;fill-rule:nonzero;stroke:none"
             d="M 0,0 19.144,10.79 5.818,-2.745 Z" /></g><g
           transform="translate(202.2017,412.2397)"
           id="g746"><path
             id="path748"
             style="fill:#5193f4;fill-opacity:1;fill-rule:nonzero;stroke:none"
             d="M 0,0 27.809,6.259 5.179,-2.333 Z" /></g><g
           transform="translate(210.8667,407.7085)"
           id="g750"><path
             id="path752"
             style="fill:#0056ec;fill-opacity:1;fill-rule:nonzero;stroke:none"
             d="m 0,0 -1.14,-3.531 3.454,2.439 z" /></g><g
           transform="translate(207.0679,404.9438)"
           id="g754"><path
             id="path756"
             style="fill:none;stroke:#c8dbfb;stroke-width:1;stroke-linecap:round;stroke-linejoin:round;stroke-miterlimit:10;stroke-dasharray:4;stroke-dashoffset:0;stroke-opacity:1"
             d="m 0,0 c -5.907,0.999 -13.927,-4.975 -10.478,-11.199 1.175,-2.119 7.232,-1.199 6.781,1.143 -0.215,1.121 -1.588,1.598 -2.722,1.468 -6.604,-0.758 -6.867,-6.292 -6.574,-7.702 1.512,-7.279 12.668,-4.816 16.419,-3.79" /></g></g></g><g
       id="g758"><g
         clip-path="url(#clipPath764)"
         id="g760"><g
           transform="translate(260.1035,24.4648)"
           id="g766"><path
             id="path768"
             style="fill:#a5b7c6;fill-opacity:1;fill-rule:nonzero;stroke:none"
             d="m 0,0 c -0.432,-0.443 -0.803,-0.932 -1.108,-1.453 l -0.465,0.241 c -0.067,0.297 -0.349,0.502 -0.658,0.466 -0.332,-0.039 -0.569,-0.339 -0.53,-0.67 0.039,-0.331 0.339,-0.567 0.67,-0.529 0.066,0.008 0.127,0.026 0.184,0.052 l 0.451,-0.234 c -0.251,-0.554 -0.433,-1.139 -0.539,-1.744 l 0.746,-0.131 c 0.23,1.306 0.85,2.507 1.792,3.473 z" /></g><g
           transform="translate(265.5918,26.7666)"
           id="g770"><path
             id="path772"
             style="fill:#a5b7c6;fill-opacity:1;fill-rule:nonzero;stroke:none"
             d="m 0,0 c -0.171,0 -0.341,-0.006 -0.51,-0.017 l -0.073,0.626 c 0.187,0.15 0.296,0.389 0.266,0.645 C -0.364,1.646 -0.72,1.928 -1.113,1.882 -1.506,1.835 -1.787,1.479 -1.741,1.086 -1.711,0.832 -1.552,0.625 -1.336,0.522 l 0.073,-0.624 c -0.714,-0.116 -1.403,-0.332 -2.059,-0.646 l 0.327,-0.684 c 0.933,0.448 1.941,0.674 2.995,0.674 0.496,0 0.993,-0.054 1.475,-0.158 l 0.161,0.741 C 1.101,-0.059 0.551,0 0,0" /></g><g
           transform="translate(272.1943,24.2197)"
           id="g774"><path
             id="path776"
             style="fill:#a5b7c6;fill-opacity:1;fill-rule:nonzero;stroke:none"
             d="M 0,0 C 0.331,0.04 0.566,0.341 0.525,0.672 0.484,1.003 0.184,1.238 -0.146,1.197 -0.456,1.159 -0.683,0.894 -0.677,0.589 L -1.093,0.226 C -1.511,0.655 -1.982,1.038 -2.501,1.365 L -2.904,0.724 c 1.133,-0.715 2.02,-1.727 2.563,-2.926 l 0.691,0.313 c -0.251,0.554 -0.568,1.072 -0.943,1.545 L -0.19,0.007 C -0.13,-0.005 -0.065,-0.009 0,0" /></g><g
           transform="translate(265.0439,16.5576)"
           id="g778"><path
             id="path780"
             style="fill:#a5b7c6;fill-opacity:1;fill-rule:nonzero;stroke:none"
             d="m 0,0 c -0.386,-0.022 -0.774,-0.034 -1.157,-0.034 -0.88,0 -1.733,0.06 -2.478,0.179 -0.39,0.062 -0.846,0.155 -1.27,0.292 1.046,-1.861 3.069,-3.125 5.387,-3.125 2.856,0 5.263,1.917 5.951,4.503 C 5.751,1.366 4.927,0.99 3.974,0.693 2.795,0.325 1.42,0.086 0,0" /></g><g
           transform="translate(268.1699,19.6436)"
           id="g782"><path
             id="path784"
             style="fill:#a5b7c6;fill-opacity:1;fill-rule:nonzero;stroke:none"
             d="M 0,0 C -0.75,0 -1.36,0.61 -1.36,1.36 -1.36,2.11 -0.75,2.721 0,2.721 0.75,2.721 1.36,2.11 1.36,1.36 1.36,0.61 0.75,0 0,0 m -4.737,-0.908 c -1.021,0 -1.85,0.83 -1.85,1.849 0,1.021 0.829,1.851 1.85,1.851 1.019,0 1.849,-0.83 1.849,-1.851 0,-1.019 -0.83,-1.849 -1.849,-1.849 m 2.159,6.514 c -3.353,0 -6.08,-2.666 -6.08,-5.943 0,-0.425 0.047,-0.849 0.137,-1.261 0.674,-0.483 2.707,-0.89 5.348,-0.731 2.879,0.174 5.297,0.958 6.672,2.158 C 3.493,0.024 3.479,0.22 3.454,0.411 3.073,3.373 0.48,5.606 -2.578,5.606" /></g><g
           transform="translate(281.5947,23.3828)"
           id="g786"><path
             id="path788"
             style="fill:#a5b7c6;fill-opacity:1;fill-rule:nonzero;stroke:none"
             d="m 0,0 c -0.294,0.116 -0.805,0.31 -1.382,0.237 -0.551,-0.068 -0.844,-0.34 -0.844,-1.006 v -0.866 h 2.228 v -1.717 h -2.228 v -5.455 h -1.931 v 5.455 h -1.34 v 1.717 h 1.34 v 0.888 c 0,1.681 0.895,2.783 2.568,2.783 0.643,0 1.157,-0.121 1.59,-0.307 z" /></g><g
           transform="translate(286.2979,20.0508)"
           id="g790"><path
             id="path792"
             style="fill:#a5b7c6;fill-opacity:1;fill-rule:nonzero;stroke:none"
             d="m 0,0 c -0.177,0.03 -0.357,0.047 -0.526,0.047 -0.896,0 -1.51,-0.548 -1.51,-1.613 v -3.909 h -1.932 v 7.172 h 1.872 V 0.913 c 0.452,0.673 1.141,0.977 2.022,0.977 0.414,0 0.847,-0.128 1.094,-0.337 z" /></g><g
           transform="translate(288.8506,18.8389)"
           id="g794"><path
             id="path796"
             style="fill:#a5b7c6;fill-opacity:1;fill-rule:nonzero;stroke:none"
             d="M 0,0 H 3.175 C 2.998,0.918 2.442,1.437 1.613,1.437 0.703,1.437 0.171,0.889 0,0 m 5.114,-0.666 c 0,-0.222 -0.014,-0.488 -0.037,-0.651 h -5.084 c 0.207,-1.037 0.933,-1.488 1.843,-1.488 0.621,0 1.295,0.252 1.812,0.689 L 4.781,-3.36 c -0.814,-0.747 -1.85,-1.088 -3.056,-1.088 -2.199,0 -3.723,1.495 -3.723,3.753 0,2.257 1.48,3.797 3.626,3.797 2.065,0 3.479,-1.533 3.486,-3.768" /></g><g
           transform="translate(296.5039,18.8389)"
           id="g798"><path
             id="path800"
             style="fill:#a5b7c6;fill-opacity:1;fill-rule:nonzero;stroke:none"
             d="M 0,0 H 3.175 C 2.998,0.918 2.442,1.437 1.613,1.437 0.703,1.437 0.17,0.889 0,0 m 5.114,-0.666 c 0,-0.222 -0.014,-0.488 -0.037,-0.651 h -5.084 c 0.207,-1.037 0.932,-1.488 1.843,-1.488 0.621,0 1.295,0.252 1.813,0.689 L 4.781,-3.36 c -0.814,-0.747 -1.85,-1.088 -3.056,-1.088 -2.199,0 -3.723,1.495 -3.723,3.753 0,2.257 1.48,3.797 3.626,3.797 2.065,0 3.479,-1.533 3.486,-3.768" /></g><g
           transform="translate(304.2871,18.166)"
           id="g802"><path
             id="path804"
             style="fill:#a5b7c6;fill-opacity:1;fill-rule:nonzero;stroke:none"
             d="m 0,0 c 0,-1.133 0.747,-1.977 1.843,-1.977 1.139,0 1.85,0.881 1.85,1.977 0,1.095 -0.711,1.976 -1.85,1.976 C 0.747,1.976 0,1.132 0,0 m 5.677,0 c 0,-2.154 -1.495,-3.775 -3.471,-3.775 -0.963,0 -1.644,0.378 -2.109,0.932 V -6.551 H -1.828 V 3.582 H 0.06 V 2.79 C 0.525,3.375 1.214,3.774 2.198,3.774 4.182,3.774 5.677,2.153 5.677,0" /></g><path
           id="path806"
           style="fill:#a5b7c6;fill-opacity:1;fill-rule:nonzero;stroke:none"
           d="m 312.809,14.576 h -1.932 v 7.172 h 1.932 z m 0.258,9.518 c 0,-0.696 -0.54,-1.229 -1.236,-1.229 -0.695,0 -1.228,0.533 -1.228,1.229 0,0.696 0.533,1.244 1.228,1.244 0.696,0 1.236,-0.548 1.236,-1.244" /><g
           transform="translate(316.0322,19.1943)"
           id="g808"><path
             id="path810"
             style="fill:#a5b7c6;fill-opacity:1;fill-rule:nonzero;stroke:none"
             d="M 0,0 2.701,2.554 H 5.07 L 1.591,-0.821 5.092,-4.618 H 2.716 L 0,-1.717 V -4.618 H -1.932 V 6.04 H 0 Z" /></g><g
           transform="translate(184.4121,16.5596)"
           id="g812"><path
             id="path814"
             style="fill:#a5b7c6;fill-opacity:1;fill-rule:nonzero;stroke:none"
             d="m 0,0 v 3.208 c -0.395,0.615 -1.245,1.143 -2.124,1.143 -1.42,0 -2.27,-1.172 -2.27,-2.74 0,-1.567 0.85,-2.724 2.27,-2.724 0.879,0 1.729,0.498 2.124,1.113 m 0,-1.919 v 1.055 c -0.527,-0.718 -1.391,-1.231 -2.387,-1.231 -1.846,0 -3.15,1.407 -3.15,3.706 0,2.256 1.289,3.721 3.15,3.721 0.952,0 1.816,-0.469 2.387,-1.245 v 3.765 h 1.099 v -9.771 z" /></g><g
           transform="translate(190.4033,20.9834)"
           id="g816"><path
             id="path818"
             style="fill:#a5b7c6;fill-opacity:1;fill-rule:nonzero;stroke:none"
             d="M 0,0 C -1.509,0 -2.256,-1.274 -2.314,-2.358 H 2.329 C 2.314,-1.304 1.611,0 0,0 m -3.472,-2.798 c 0,2.051 1.465,3.706 3.487,3.706 2.138,0 3.398,-1.67 3.398,-3.794 v -0.278 h -5.727 c 0.087,-1.333 1.025,-2.446 2.548,-2.446 0.806,0 1.626,0.322 2.183,0.893 L 2.944,-5.435 C 2.241,-6.138 1.289,-6.519 0.132,-6.519 c -2.095,0 -3.604,1.509 -3.604,3.721" /></g><g
           transform="translate(194.6069,15.5781)"
           id="g820"><path
             id="path822"
             style="fill:#a5b7c6;fill-opacity:1;fill-rule:nonzero;stroke:none"
             d="M 0,0 0.571,0.791 C 1.04,0.249 1.934,-0.22 2.9,-0.22 c 1.084,0 1.67,0.513 1.67,1.216 0,1.714 -4.38,0.659 -4.38,3.281 0,1.099 0.953,2.036 2.637,2.036 1.201,0 2.051,-0.454 2.622,-1.025 L 4.936,4.526 C 4.512,5.039 3.735,5.42 2.827,5.42 1.86,5.42 1.26,4.937 1.26,4.307 1.26,2.754 5.639,3.779 5.639,1.025 5.639,-0.161 4.687,-1.113 2.856,-1.113 1.699,-1.113 0.718,-0.762 0,0" /></g><path
           id="path824"
           style="fill:#a5b7c6;fill-opacity:1;fill-rule:nonzero;stroke:none"
           d="m 201.667,21.716 h 1.099 v -7.075 h -1.099 z m -0.19,1.743 c 0,0.41 0.337,0.747 0.732,0.747 0.41,0 0.747,-0.337 0.747,-0.747 0,-0.41 -0.337,-0.732 -0.747,-0.732 -0.395,0 -0.732,0.322 -0.732,0.732" /><g
           transform="translate(209.7085,16.6768)"
           id="g826"><path
             id="path828"
             style="fill:#a5b7c6;fill-opacity:1;fill-rule:nonzero;stroke:none"
             d="m 0,0 v 3.091 c -0.381,0.615 -1.23,1.142 -2.109,1.142 -1.421,0 -2.27,-1.128 -2.27,-2.695 0,-1.553 0.849,-2.695 2.27,-2.695 0.879,0 1.728,0.542 2.109,1.157 m -5.126,-3.853 0.556,0.821 c 0.586,-0.703 1.289,-0.967 2.299,-0.967 1.172,0 2.271,0.571 2.271,2.124 v 1.011 c -0.513,-0.718 -1.376,-1.26 -2.373,-1.26 -1.845,0 -3.149,1.377 -3.149,3.662 0,2.271 1.289,3.677 3.149,3.677 0.952,0 1.802,-0.469 2.373,-1.245 v 1.069 h 1.099 v -6.87 c 0,-2.344 -1.641,-3.076 -3.37,-3.076 -1.201,0 -2.021,0.235 -2.855,1.054" /></g><g
           transform="translate(217.4131,14.6406)"
           id="g830"><path
             id="path832"
             style="fill:#a5b7c6;fill-opacity:1;fill-rule:nonzero;stroke:none"
             d="M 0,0 V 4.629 C 0,5.874 -0.63,6.27 -1.582,6.27 -2.446,6.27 -3.267,5.742 -3.676,5.171 V 0 h -1.099 v 7.075 h 1.099 V 6.05 c 0.497,0.586 1.464,1.201 2.519,1.201 1.479,0 2.256,-0.747 2.256,-2.285 L 1.099,0 Z" /></g><g
           transform="translate(223.4043,20.9834)"
           id="g834"><path
             id="path836"
             style="fill:#a5b7c6;fill-opacity:1;fill-rule:nonzero;stroke:none"
             d="M 0,0 C -1.509,0 -2.256,-1.274 -2.314,-2.358 H 2.329 C 2.314,-1.304 1.611,0 0,0 m -3.472,-2.798 c 0,2.051 1.465,3.706 3.486,3.706 2.139,0 3.399,-1.67 3.399,-3.794 v -0.278 h -5.727 c 0.087,-1.333 1.025,-2.446 2.548,-2.446 0.806,0 1.626,0.322 2.183,0.893 L 2.944,-5.435 C 2.241,-6.138 1.289,-6.519 0.132,-6.519 c -2.095,0 -3.604,1.509 -3.604,3.721" /></g><g
           transform="translate(233.3501,16.5596)"
           id="g838"><path
             id="path840"
             style="fill:#a5b7c6;fill-opacity:1;fill-rule:nonzero;stroke:none"
             d="m 0,0 v 3.208 c -0.396,0.615 -1.245,1.143 -2.124,1.143 -1.421,0 -2.271,-1.172 -2.271,-2.74 0,-1.567 0.85,-2.724 2.271,-2.724 0.879,0 1.728,0.498 2.124,1.113 m 0,-1.919 v 1.055 c -0.527,-0.718 -1.392,-1.231 -2.388,-1.231 -1.845,0 -3.149,1.407 -3.149,3.706 0,2.256 1.288,3.721 3.149,3.721 0.952,0 1.817,-0.469 2.388,-1.245 v 3.765 h 1.098 v -9.771 z" /></g><g
           transform="translate(242.8999,15.4463)"
           id="g842"><path
             id="path844"
             style="fill:#a5b7c6;fill-opacity:1;fill-rule:nonzero;stroke:none"
             d="M 0,0 C 1.436,0 2.285,1.157 2.285,2.725 2.285,4.292 1.436,5.464 0,5.464 -0.864,5.464 -1.729,4.937 -2.109,4.321 V 1.113 C -1.729,0.498 -0.864,0 0,0 m -3.208,-0.806 v 9.771 h 1.099 V 5.2 c 0.571,0.777 1.421,1.245 2.387,1.245 1.846,0 3.15,-1.465 3.15,-3.72 0,-2.3 -1.304,-3.706 -3.15,-3.706 -0.996,0 -1.86,0.512 -2.387,1.23 v -1.055 z" /></g><g
           transform="translate(247.5283,12.8682)"
           id="g846"><path
             id="path848"
             style="fill:#a5b7c6;fill-opacity:1;fill-rule:nonzero;stroke:none"
             d="m 0,0 c 0.161,-0.073 0.425,-0.117 0.601,-0.117 0.483,0 0.805,0.161 1.054,0.747 L 2.124,1.699 -0.835,8.848 H 0.352 L 2.71,3.047 5.054,8.848 H 6.255 L 2.71,0.337 C 2.285,-0.688 1.567,-1.084 0.63,-1.099 c -0.234,0 -0.601,0.044 -0.806,0.103 z" /></g></g></g></g></svg>